<svg width="527" height="201" viewBox="0 0 527 201" fill="none" xmlns="http://www.w3.org/2000/svg">
    <path d="M96.3845 180.561C88.2602 176.758 80.847 170.292 73.5132 165.187C63.5284 158.238 52.8913 151.313 48.1428 139.59C43.2782 127.58 44.5191 114.56 46.7796 102.102C49.4091 87.6105 55.6942 74.134 69.5373 67.53C86.3151 59.5259 104.473 61.8311 121.111 69.3097C133.373 74.8215 155.705 91.2005 144.702 107.1C133.845 122.79 109.351 127.48 91.7648 124.973C81.7306 123.543 71.8192 120.044 62.6834 115.734C55.0845 112.149 45.3202 107.66 40.0772 100.739C34.3533 93.1833 34.5241 82.3906 36.1391 73.5508C38.2059 62.2379 40.1041 51.6113 40.4937 40.0769C40.9004 28.041 55.5965 28.5935 64.7282 27.8839C77.7005 26.8759 90.9595 22.7654 103.996 25.3469C115.089 27.5435 117.523 38.3812 120.316 47.8774C121.005 50.2206 125.34 70.7536 129.783 69.3097C132.181 68.5301 134.343 66.0644 136.371 64.69C142.195 60.7453 148.651 57.8009 155.077 54.9962C175.859 45.9268 199.793 40.7259 218.882 28.2626C223.317 25.3669 233.975 17.4791 230.356 10.6547C227.528 5.3214 220.323 2.52882 214.679 1.86969C206.098 0.86755 197.504 5.40267 189.839 8.53418C177.529 13.5629 161.357 18.5053 153.525 30.1559C147.739 38.7625 150.102 50.5614 152.919 59.7295C160.163 83.3042 178.899 94.0084 200.138 103.617C207.851 107.106 227.674 114.042 225.13 125.882C224.151 130.442 218.931 132.452 215.134 133.91C208.591 136.421 201.951 138.81 195.329 141.104C181.018 146.063 167.196 152.182 152.389 155.607C149.331 156.315 129.526 162.54 128.041 156.705C127.218 153.471 132.524 150.345 134.402 149.132C143.944 142.969 154.771 138.364 165.301 134.213C177.127 129.55 189.254 125.724 201.956 124.443C213.927 123.236 227.962 122.761 238.043 130.426C243.499 134.575 246.967 140.549 250.993 145.951C256.114 152.822 261.994 158.92 268.752 164.203C284.397 176.432 303.917 180.931 323.431 182.303C333.949 183.042 347.495 185.492 357.284 180.561C363.444 177.458 372.951 172.891 376.369 166.626C379.42 161.033 378.612 153.779 378.035 147.731C377.397 141.057 376.653 133.863 374.74 127.397C370.581 113.333 347.352 117.99 337.366 120.884C326.131 124.139 312.481 129.512 301.09 123.307C292.82 118.802 289.178 103.769 286.398 95.7405C282.696 85.0504 276.013 71.8122 283.975 61.5093C290.639 52.885 301.203 47.9526 310.633 43.1062C317.159 39.7518 323.736 36.4953 330.323 33.2609C338.754 29.1213 347.966 23.521 357.587 22.8098C376.116 21.4399 394.102 36.7765 406.359 48.7862C413.663 55.9429 424.209 66.3564 425.443 77.6782C426.981 91.7806 416.943 95.3895 405.223 98.6183C389.297 103.006 367.766 102.731 351.642 102.708C338.597 102.689 323.936 102.336 310.784 100.89C298.645 99.556 286.669 96.3615 279.809 85.4408C276.831 80.6996 275.707 75.049 274.129 69.7641C272.738 65.1048 270.945 60.5635 269.813 55.8293C267.609 46.6183 264.653 37.1921 264.133 27.6946C263.878 23.0478 263.733 18.4173 269.434 18.4173C281.524 18.4173 293.3 18.5753 305.407 17.9629C313.848 17.5359 321.797 21.0025 330.172 20.2349C335.082 19.7847 339.891 18.0746 344.712 17.1298C355.811 14.9552 367.215 14.1094 378.451 12.9267C397.319 10.9406 416.322 11.2602 433.433 20.3864C437.51 22.5608 442.106 25.1522 445.21 28.6791C448.834 32.7971 450.245 38.6672 452.48 43.5606C456.755 52.9183 461.014 60.1056 460.205 70.6729C458.749 89.698 440.788 99.1512 428.397 111.417C421.501 118.243 415.692 124.729 416.204 134.97C416.6 142.897 419.005 148.847 425.671 153.222C430.774 156.571 436.947 157.865 442.673 159.735C453.485 163.265 464.09 167.442 474.973 170.754C481.966 172.882 489.181 174.647 496.481 175.298C499.014 175.523 504.46 176.34 506.553 174.124C513.907 166.338 515.041 151.665 513.369 141.635C512.709 137.671 510.33 134.502 508.712 130.994C504.955 122.856 501.344 114.411 498.829 105.813C496.442 97.6552 488.358 94.1875 480.728 91.5752C473.687 89.164 466.314 88.0824 459.069 86.5011C454.866 85.5838 449.091 85.0958 447.823 80.2153C444.81 68.6302 448.94 57.1528 455.472 47.6123C463.176 36.3588 473.427 21.5614 485.803 14.8579C488.943 13.1568 493.528 14.5414 497.011 13.7219C499.43 13.1526 502.247 13.5704 504.736 13.5704C510.418 13.5704 520.123 14.8579 525.5 14.8579" stroke="#000AFF" stroke-width="3" stroke-linecap="round"/>
    <path d="M442 8C459.94 16.4606 497.075 32.0454 508.697 49.2634C514.423 57.7458 515.526 71.7356 517.883 81.5925C519.473 88.245 519.056 95.9845 518.678 102.784C518.094 113.296 511.032 114.78 502.116 117.249C483.651 122.362 465.783 130.157 446.715 132.871C435.26 134.501 423.385 134.282 411.855 133.739C404.838 133.408 395.391 133.463 389.434 128.965C375.552 118.483 390.999 100.251 399.704 92.5135C409.912 83.4401 420.33 92.8813 428.345 100.469C433.922 105.749 451.817 121.692 447.221 131.424C443.948 138.357 431.627 141.145 425.379 143.141C409.115 148.337 392.599 151.207 375.548 151.964C355.053 152.875 334.443 152.254 313.927 152.254C309.002 152.254 303.406 151.474 298.594 152.543C293.104 153.763 283.174 162.908 285.576 169.467C288.327 176.978 300.772 182.06 307.273 184.366C321.214 189.309 336.455 190.364 351.102 189.139C365.58 187.928 384.756 184.849 396.811 175.687C398.494 174.408 399.101 171.688 401.44 171.347C405.507 170.756 410.344 172.979 414.024 174.385C419.913 176.635 424.63 177.9 430.876 178.363C437.06 178.821 437.845 181.579 432.323 174.457C412.535 148.942 388.892 126.858 364.627 105.677C351.547 94.2592 338.22 81.4078 323.112 72.6243C318.436 69.9054 313.402 68.4798 307.996 69.0804C297.871 70.2054 283.567 79.2103 275.74 85.1364C270.356 89.2123 258.038 102.647 271.834 100.903C315.346 95.4044 357.836 78.5874 398.836 63.7283C414.168 58.1718 430.627 52.5339 443.533 42.1756C444.102 41.7187 452.404 34.6529 451.778 32.7734C451.352 31.495 421.824 39.9914 420.244 40.3675C379.414 50.089 335.461 53.0243 293.604 53.0243C268.161 53.0243 242.781 51.2672 217.374 50.2036C204.63 49.6702 191.43 50.3282 178.752 48.6848C173.414 47.9929 168.688 43.8568 163.42 42.3202C152.269 39.0681 139.382 37.019 127.836 36.6066C114.592 36.1336 129.211 52.1624 132.392 55.0494C147.082 68.3793 165.28 74.6209 184.249 79.1335C208.806 84.9753 233.655 88.999 257.659 97.07C263.429 99.0104 308.122 113.31 293.025 127.519C289.192 131.127 283.996 132.592 278.922 133.449C263.225 136.101 246.761 135.957 230.898 136.342C215.424 136.718 199.943 136.632 184.466 136.632C183.807 136.632 170.922 135.326 170.146 137.499C169.122 140.365 175.699 144.626 177.089 146.034C181.173 150.167 184.048 155.348 184.611 161.222C185.448 169.964 174.206 167.738 168.699 168.165C152.448 169.425 136.138 171.708 119.952 173.662C117.958 173.902 110.548 176.13 113.516 171.564C116.44 167.065 121.656 164.091 125.955 161.15C136.885 153.671 147.922 146.6 160.237 141.55C190.593 129.101 233.523 127.114 264.529 139.38C276.504 144.117 277.679 156.056 277.909 167.587C278.052 174.707 279.152 182.696 270.243 184.221C251.282 187.467 229.847 184.878 210.648 184.8C189.292 184.713 165.669 185.625 147.58 172.36C142.183 168.402 144.054 162.038 143.024 156.087C139.939 138.264 131.624 119.485 116.842 108.57C100.837 96.7504 81.9275 90.7598 64.1901 100.614C57.0135 104.601 69.5002 94.8568 70.0484 94.4663C87.1549 82.2809 107.17 73.845 118.94 55.4833C128.629 40.3683 125.149 21.0132 112.431 8.76161C106.593 3.1384 98.5368 3.84353 91.0226 3.84353C78.252 3.84353 65.3074 4.30138 52.8352 7.31512C35.1727 11.583 16.2967 21.1725 5.1009 36.1003C-0.852067 44.0376 3.56009 56.1689 8.93411 62.9328C24.4144 82.4166 49.8448 78.5148 72.1458 79.4951C79.2866 79.809 127.965 79.0839 122.122 95.5512C118.593 105.496 109.855 114.393 103.318 122.384C94.9499 132.611 86.1314 142.394 77.4255 152.326C66.7139 164.546 58.8357 198.703 39.6721 199.12C24.2939 199.454 12.6708 177.446 6.69205 165.851C1.89061 156.539 1.482 152.526 12.1887 150.373C39.2571 144.93 70.3906 134.769 91.4565 157.75C92.0385 158.385 91.5502 159.347 91.7458 160.065C92.6718 163.46 98.3998 166.24 101.003 167.587C111.785 173.163 124.023 175.79 136.008 176.989" stroke="#000AFF" stroke-width="3" stroke-linecap="round"/>
</svg>
