<svg width="208" height="212" viewBox="0 0 208 212" fill="none" xmlns="http://www.w3.org/2000/svg">
    <path d="M51.8153 68.5409V82.1145V98.5701H68.1762V82.1145H189.083V193.169H18.898V177.19H2.53711V209.461H4.89197H18.898H205.444V207.114V193.169V82.1145V74.7663V65.8223H51.8153V68.5409Z" stroke="#000AFF" stroke-width="5" stroke-miterlimit="10"/>
    <path d="M2.53711 3V5.34693V19.2922V130.344V137.695V146.637H156.166V143.92V130.344V113.891H139.805V130.344H18.898V19.2922H189.083V35.2691H205.444V19.2922V5.24183V3H2.53711Z" stroke="#000AFF" stroke-width="5" stroke-miterlimit="10"/>
    <path d="M191.247 32.188C195.956 30.6428 200.613 28.9381 205.317 27.3949L204.717 27.0543C205.741 29.9734 202.413 32.0128 199.845 31.4407C197.334 30.8802 194.876 29.049 193.961 26.6029C193.211 24.5984 193.746 22.4345 195.765 21.4868C197.262 20.7842 199.542 20.7959 200.26 22.5648C200.455 23.0202 201.289 23.0339 201.219 22.4364C200.787 18.8051 200.463 15.1446 199.918 11.5386C199.742 10.371 199.237 9.32989 198.008 9.02436C196.658 8.6877 195.173 9.32016 193.904 9.70547L182.843 13.0565C179.359 14.1132 175.888 15.2925 172.367 16.2188C169.842 16.8824 165.918 17.4682 164.495 14.6484L164.202 15.3626C172.406 12.0843 181.065 10.0749 189.879 9.40383L189.632 8.497C183.076 12.1945 175.796 16.1507 168.04 16.0145C164.051 15.9425 160.586 14.4908 157.192 12.5117C153.979 10.6376 150.802 8.85311 147.249 7.6816C143.724 6.5155 140.045 5.87737 136.332 5.78811C133.346 5.72195 130.884 6.5354 128.744 8.6196C126.96 10.371 125.617 12.4922 123.811 14.2183C122.999 14.9967 122.066 15.6992 120.96 15.9931C120.556 16.1001 119.682 16.3161 119.375 16.0281C118.684 15.3743 119.405 13.9381 119.923 13.4243C121.165 12.1906 123.383 12.0193 125.017 11.7079C127.082 11.3187 129.159 10.9912 131.247 10.7252C135.379 10.2075 139.538 9.94296 143.702 9.93317C147.736 9.92264 151.767 10.152 155.773 10.6201C157.546 10.8264 160.096 10.9237 161.218 12.5661C161.657 13.2064 161.884 14.123 161.524 14.8527C160.981 15.9503 159.445 15.925 158.398 15.7284C155.287 15.1446 153.002 12.5408 150.454 10.8634C147.663 9.03798 144.368 8.26153 141.054 8.20509C133.483 8.07665 126.579 11.4705 119.299 12.9787C115.322 13.7913 111.222 13.8066 107.239 13.0235C103.394 12.3015 99.657 11.1164 95.858 10.1959C89.8506 8.74219 83.0753 8.01632 77.3298 10.8205C76.013 11.4701 74.7999 12.3102 73.7301 13.3134C73.3607 13.6559 73.7496 14.2358 74.205 14.1269C87.4176 10.9334 100.916 14.4265 114.159 15.4891C117.978 15.8282 121.817 15.8757 125.643 15.6311C125.738 15.6283 125.83 15.5982 125.908 15.5444C125.987 15.4906 126.048 15.4155 126.084 15.3279C126.121 15.2404 126.131 15.1442 126.114 15.0509C126.097 14.9577 126.054 14.8713 125.988 14.8021C121.175 9.93704 114.517 7.79642 108.058 6.07807C104.836 5.21792 101.023 3.89073 97.9236 5.83287C96.4833 6.73777 95.4144 8.09999 94.2692 9.33572C93.0227 10.6694 91.7098 11.9398 90.3353 13.1422C88.8638 14.4291 87.3222 15.6342 85.7174 16.752C85.0061 17.2463 84.2791 17.801 83.5052 18.196C82.5574 18.6806 81.508 18.7039 80.4683 18.6494C78.8053 18.566 77.1384 18.6044 75.4811 18.7643C74.8283 18.8265 74.1131 18.9005 73.4662 18.7156C72.4735 18.4295 72.1725 17.5207 72.0064 16.5905C71.7446 15.1038 71.7563 13.5917 70.871 12.2976C70.2015 11.3583 69.268 10.6372 68.1878 10.2251C65.6649 9.20341 62.8156 9.53812 60.3591 10.5656C58.4518 11.3635 56.691 12.4533 54.8482 13.3815C53.875 13.8901 52.8572 14.3089 51.8074 14.6328C51.6156 14.7106 51.4146 14.7636 51.2094 14.7905C50.6094 14.7652 50.3495 14.4791 50.1892 13.9712C50.0759 13.6131 49.9684 13.2589 49.8199 12.9125C49.167 11.435 48.1072 10.1718 46.7632 9.26909C45.4192 8.36643 43.846 7.86124 42.2257 7.81199L42.3547 8.7675C45.7064 7.91494 49.2101 7.8413 52.595 8.55228C55.9799 9.26325 59.1552 10.7398 61.8756 12.8678V12.1808C59.1534 14.6309 55.3465 14.7379 51.909 14.049C48.1432 13.2939 44.7193 11.5192 41.0825 10.3515C39.2181 9.75606 37.2815 9.30265 35.3155 9.24621C33.3495 9.18978 31.5321 9.66461 29.7029 10.4138C28.7883 10.7894 27.8093 11.2078 26.797 11.1339C25.7495 11.056 24.8427 10.3905 23.8871 10.0324C22.4019 9.47975 20.772 9.63347 19.3278 10.2387C15.4194 11.8675 13.9048 15.995 12.66 19.6944C12.5056 20.1537 13.1524 20.5235 13.4749 20.1693C16.928 16.3765 20.7896 12.0582 25.9957 10.8089C30.1485 9.81251 35.2862 11.0443 37.2424 15.1446L37.7935 14.4304L20.5258 10.9957C17.7019 10.4333 14.8819 9.80279 12.0424 9.32601C9.73641 8.9368 7.28579 8.81808 5.15957 9.96624C1.73183 11.8169 1.36052 17.0965 3.22878 20.1615C4.2743 21.8798 5.96472 22.5824 7.91896 22.705C9.23026 22.7887 10.6334 22.6252 11.8431 23.2498C12.2951 23.4887 12.6863 23.8273 12.9868 24.2398C13.2872 24.6523 13.4889 25.1278 13.5765 25.6298C14.6318 30.8277 8.61272 33.9706 7.19784 38.4445C7.17882 38.5166 7.17656 38.5921 7.19125 38.6652C7.20593 38.7383 7.23717 38.8071 7.28258 38.8664C7.32799 38.9257 7.38638 38.9739 7.45331 39.0074C7.52024 39.0408 7.59394 39.0586 7.66882 39.0594C10.9637 39.1664 14.0279 36.1695 13.6586 32.8321C13.3049 29.625 10.0432 27.3832 6.92229 27.8542C6.79864 27.89 6.69392 27.9725 6.63042 28.0841C6.56691 28.1957 6.54963 28.3275 6.58226 28.4516L10.3618 43.8603C10.9832 46.3901 11.6633 48.9199 12.2281 51.4673C12.4411 52.4403 12.5486 53.5379 11.3877 53.8317C10.7292 53.9991 9.99046 53.894 9.32406 53.8317C8.1007 53.7208 6.67411 53.4873 5.55042 54.1275C4.26452 54.8592 4.08865 56.3927 4.70423 57.6304C5.66377 59.5764 7.88379 59.952 9.32016 61.3882C10.8034 62.8691 10.8484 65.0662 10.3598 66.9811C9.18727 71.5387 4.95437 74.6796 4.5733 79.5291H5.55042L5.81229 73.15C5.83769 72.5253 4.86057 72.5253 4.83516 73.15L4.57525 79.5427C4.54985 80.1732 5.50547 80.1596 5.55237 79.5427C5.90023 75.098 9.77159 72.0583 11.0985 67.958C11.6359 66.3019 11.8704 64.4181 11.2939 62.7407C10.6451 60.8764 9.13059 59.9968 7.52029 59.0315C6.60571 58.4827 5.7048 57.823 5.40581 56.7449C5.10681 55.6668 5.80838 54.8845 6.84999 54.7269C8.21796 54.5187 9.60938 54.9721 10.9871 54.869C12.1597 54.7814 13.1622 54.1898 13.3557 52.956C13.5257 51.8779 13.0488 50.6792 12.7968 49.6478L11.8411 45.7557L7.54179 28.2006L7.1998 28.7999C9.78331 28.4107 12.5564 30.4638 12.7244 33.1123C12.8964 35.8485 10.3598 38.1895 7.6864 38.102L8.15738 38.7188C9.43154 34.6886 13.6859 32.3981 14.5087 28.1422C14.8096 26.599 14.7158 24.867 13.727 23.5748C12.4802 21.948 10.5005 21.8234 8.61076 21.7748C6.19336 21.7008 4.32511 20.8835 3.54146 18.4665C2.91805 16.536 2.95518 14.1152 4.05347 12.3579C5.46638 10.0908 8.45638 9.84364 10.8699 10.1433C13.6351 10.4878 16.3808 11.1786 19.1109 11.7216L37.557 15.3898C37.6501 15.4124 37.7478 15.4076 37.8382 15.3759C37.9286 15.3443 38.0078 15.2871 38.0662 15.2115C38.1245 15.1358 38.1596 15.0449 38.167 14.9498C38.1745 14.8546 38.154 14.7594 38.1081 14.6756C36.0835 10.4275 30.9185 8.97571 26.5409 9.73077C20.8072 10.7194 16.5235 15.421 12.8085 19.5018L13.6254 19.9747C14.8116 16.4465 16.3027 12.2217 20.2385 10.9626C21.0975 10.6673 22.019 10.6002 22.9119 10.768C23.9027 10.9782 24.7391 11.5678 25.6869 11.8928C27.4458 12.4883 29.0404 11.7391 30.6507 11.093C38.3094 8.01632 45.589 14.2066 53.0268 15.2205C56.435 15.6856 59.9468 15.2419 62.5811 12.8717C62.6724 12.7805 62.7237 12.657 62.7237 12.5282C62.7237 12.3994 62.6724 12.2759 62.5811 12.1847C59.7356 9.93996 56.4081 8.37948 52.8579 7.62475C49.3076 6.87003 45.6304 6.94142 42.1124 7.83339C41.571 7.97156 41.6981 8.77333 42.2433 8.7889C43.9448 8.83448 45.58 9.45638 46.8788 10.552C48.1705 11.6418 48.8115 12.9398 49.345 14.5005C49.8043 15.8413 50.8517 15.9328 52.081 15.5747C53.7675 15.0843 55.3387 14.2553 56.8747 13.4224C59.6947 11.8928 62.5655 10.2523 65.8936 10.6435C67.2361 10.803 68.6295 11.2818 69.5949 12.2645C70.7967 13.4905 70.785 15.0979 71.0488 16.6898C71.256 17.9314 71.727 19.1398 73.0031 19.5913C74.2343 20.0272 75.6374 19.7159 76.8979 19.5913C78.5785 19.422 80.2475 19.7684 81.9223 19.6244C83.6557 19.4765 84.9865 18.4568 86.3662 17.4974C89.3015 15.4479 92.0271 13.1157 94.5037 10.5345C95.7583 9.22481 96.8937 7.66019 98.4473 6.67939C100.243 5.54485 102.375 5.70637 104.367 6.14423C108.134 6.94708 111.835 8.03217 115.438 9.39022C119.096 10.7875 122.557 12.6985 125.326 15.4949L125.672 14.664C112.006 15.637 98.6252 11.6184 84.9846 11.8442C81.276 11.8856 77.5834 12.3359 73.9743 13.1869L74.4512 13.9984C79.7999 9.02241 87.8788 9.36685 94.5408 10.8848C98.5959 11.8052 102.553 13.0974 106.645 13.8972C110.589 14.6756 114.523 14.8391 118.492 14.1346C126.461 12.7218 133.972 8.67212 142.248 9.23258C144.153 9.34341 146.025 9.77712 147.784 10.515C149.51 11.2604 150.983 12.3891 152.461 13.5255C154.708 15.2556 157.811 17.6122 160.864 16.5944C162.146 16.1683 162.818 14.9909 162.67 13.6754C162.504 12.2159 161.483 11.1319 160.176 10.5617C158.529 9.83003 156.594 9.74244 154.825 9.55173C152.691 9.3234 150.551 9.16253 148.406 9.06912C139.807 8.69743 131.013 9.33185 122.61 11.2234C121.216 11.5367 119.69 12.0271 118.83 13.2472C118.148 14.2203 117.874 15.7771 118.713 16.7501C119.373 17.5129 120.991 17.0731 121.816 16.7501C122.879 16.3375 123.794 15.6272 124.603 14.8372C126.473 13.0137 127.867 10.7505 129.799 8.99906C130.972 7.9268 132.305 7.16785 133.889 6.90513C135.912 6.56847 138.089 6.80395 140.106 7.06472C144.258 7.60818 148.289 8.84641 152.027 10.7271C155.511 12.4786 158.671 14.9014 162.427 16.1021C170.049 18.5443 178.026 15.637 184.831 12.21C186.621 11.309 188.378 10.3438 190.123 9.36102C190.527 9.13334 190.371 8.41719 189.877 8.45417C180.977 9.12395 172.233 11.1453 163.948 14.448C163.877 14.4695 163.812 14.5065 163.757 14.5563C163.702 14.6062 163.659 14.6675 163.631 14.736C163.603 14.8044 163.591 14.8782 163.596 14.9519C163.6 15.0256 163.621 15.0975 163.657 15.1622C166.107 19.998 173.492 16.933 177.186 15.8141L187.885 12.5681L193.236 10.947C194.528 10.5578 196.814 9.40772 198.149 10.1083C199.114 10.6162 199.05 12.2334 199.159 13.1499L199.529 16.2636L200.267 22.4695L201.227 22.3391C199.765 18.7662 194.248 19.856 192.986 23.0494C191.088 27.8464 197.178 33.2875 201.799 32.5071C204.389 32.0693 206.613 29.4966 205.677 26.8286C205.641 26.7054 205.558 26.601 205.446 26.5374C205.334 26.4739 205.202 26.4561 205.077 26.488C200.365 28.0332 195.708 29.7379 191.006 31.2831C190.42 31.4777 190.666 32.4176 191.266 32.221L191.247 32.188Z" fill="#000AFF"/>
    <path d="M10.7149 75.1449C11.3441 75.1449 11.3461 74.1719 10.7149 74.1719C10.0836 74.1719 10.0856 75.1449 10.7149 75.1449Z" fill="#000AFF"/>
    <path d="M2.24257 66.4487C8.65836 69.9963 12.6196 77.1869 12.6391 84.4436C12.6439 86.4856 12.32 88.5151 11.6796 90.4549L12.2815 90.1144C10.6779 89.8022 9.11173 89.3228 7.60892 88.684C6.82723 88.3493 3.35453 87.063 4.57789 85.8681C5.80125 84.6733 7.79653 86.5395 8.78733 87.2303L13.2039 90.2681L13.1043 89.5033C11.4079 91.3435 9.95815 93.3948 8.79124 95.6061C7.65973 97.7078 6.7002 99.8873 5.55697 101.993C4.94133 103.134 4.25944 104.239 3.51478 105.301C2.84252 106.255 1.95139 107.01 2.27189 108.267C2.34054 108.635 2.49223 108.982 2.7155 109.283C3.05358 109.672 3.67113 109.845 4.11083 110.083C4.99219 110.561 5.83056 111.102 6.65135 111.663C8.38993 112.878 10.3577 113.729 12.4359 114.165C12.5191 114.186 12.6062 114.185 12.6888 114.162C12.7714 114.139 12.8466 114.096 12.9072 114.035C12.9678 113.975 13.0117 113.9 13.0346 113.818C13.0575 113.736 13.0586 113.649 13.0378 113.566C11.5914 107.454 11.3261 101.124 12.2561 94.9133L11.363 95.03C13.069 98.2785 13.6201 102.007 12.9264 105.607L13.3974 105.251C11.1989 105.161 10.1533 102.643 8.4942 101.553C7.08714 100.633 5.05668 100.247 3.95254 101.792C3.88807 101.904 3.87018 102.036 3.90271 102.161C3.93525 102.285 4.0156 102.392 4.12646 102.458C7.88643 104.822 13.03 108.409 12.7564 113.434C12.6001 116.296 10.4778 118.729 9.10978 121.122C7.67799 123.643 6.4375 126.268 5.39868 128.973C4.20941 132.054 3.28691 135.231 2.64124 138.469C2.61502 138.582 2.62948 138.699 2.68207 138.802C2.73466 138.905 2.822 138.986 2.92864 139.03C3.03529 139.075 3.15437 139.081 3.26485 139.046C3.37533 139.012 3.47009 138.94 3.53238 138.843C4.86126 137.055 6.75492 135.825 8.4512 134.416C9.95211 133.184 11.2287 131.704 12.2248 130.041C14.121 126.821 14.9721 123.097 14.6618 119.377C14.485 117.276 13.9164 115.226 12.9851 113.332C12.7623 112.881 12.0822 113.122 12.0744 113.578C11.9434 120.973 11.8789 128.387 11.6835 135.788C11.662 136.58 11.5897 137.278 10.98 137.845C10.5559 138.234 10.1006 138.6 9.9462 139.185C9.65892 140.283 10.595 141.161 11.5096 141.569C13.6944 142.542 16.5672 141.61 18.4354 140.347C20.7805 138.761 22.3928 136.239 22.6214 133.404L22.0039 133.875C25.0799 134.815 26.3189 138.269 27.2178 141.026C27.3058 141.295 27.6692 141.517 27.935 141.316L36.9753 134.581C37.0797 134.513 37.1536 134.407 37.182 134.286C37.2104 134.164 37.1911 134.037 37.128 133.93C37.0649 133.822 36.9629 133.743 36.8429 133.708C36.7229 133.673 36.594 133.686 36.4829 133.742C32.8495 135.537 28.6674 135.889 24.7828 134.729C23.1764 134.248 21.742 133.215 20.0926 132.925C18.965 132.731 17.5736 132.904 17.343 134.239C17.3172 134.342 17.325 134.451 17.3654 134.55C17.4058 134.648 17.4767 134.732 17.5678 134.787C27.7181 139.468 39.1582 137.901 49.9554 139.211C53.085 139.562 56.1632 140.272 59.1286 141.328C59.2535 141.36 59.3861 141.343 59.4982 141.279C59.6103 141.216 59.693 141.111 59.7286 140.988C60.6178 137.605 57.6864 134.371 54.4365 133.807C50.272 133.096 46.4886 135.772 43.6159 138.448C41.7926 140.145 40.0865 141.98 38.0502 143.434C37.9511 143.495 37.8773 143.59 37.8419 143.7C37.8064 143.811 37.8118 143.931 37.857 144.038C37.9022 144.145 37.9842 144.232 38.0884 144.285C38.1926 144.337 38.312 144.351 38.4254 144.323L70.6118 139.847L79.7655 138.576C80.3087 138.5 80.1817 137.588 79.6345 137.621C77.9226 137.726 76.0094 137.878 74.4401 137.037C73.1347 136.34 72.1693 134.824 72.7028 133.351L71.8859 133.567C77.1487 139.44 86.1519 140.62 92.7221 136.233C94.4738 135.064 95.9805 133.567 97.1582 131.826L96.2651 131.711C96.7381 134.169 97.4983 136.99 99.4271 138.738C100.404 139.623 101.53 139.989 102.829 140.059C103.769 140.11 104.156 140.437 104.834 141.007C105.42 141.49 106.145 141.772 106.904 141.813C108.704 141.97 110.601 141.824 112.403 141.727C114.213 141.648 116.012 141.419 117.783 141.042C121.055 140.308 123.886 138.689 126.697 136.928C129.708 135.04 132.829 133.009 136.468 132.676L136.222 131.769C124.441 140.818 109.839 146.028 94.9753 146.608C90.8113 146.772 86.6409 146.568 82.5131 145.999L82.6284 146.888C91.19 142.498 100.598 140.176 110.005 138.395C112.351 137.95 114.719 137.537 117.082 137.132C119.202 136.767 121.332 136.354 123.494 136.336C125.518 136.323 127.648 136.693 129.225 138.051C130.683 139.306 131.613 141.042 133.72 141.26C134.99 141.39 136.29 141.048 137.521 140.779C138.902 140.476 140.276 140.136 141.643 139.76C144.37 139 147.054 138.096 149.684 137.051L149.21 136.237L143.525 140.984L144.359 141.328C143.538 133.777 144.292 126.138 146.573 118.89L145.973 119.231C147.331 119.716 148.551 120.52 149.53 121.575C150.51 122.63 151.219 123.905 151.598 125.291C152.379 128.227 151.453 131.442 149.354 133.618H150.044C147.974 131.256 146.498 128.439 145.736 125.397C144.974 122.356 144.948 119.178 145.661 116.125L145.061 116.466L152.377 118.505C152.983 118.674 153.243 117.727 152.637 117.567L145.303 115.545C145.178 115.512 145.045 115.529 144.933 115.592C144.82 115.656 144.737 115.76 144.701 115.884C143.947 119.103 143.974 122.454 144.781 125.661C145.587 128.868 147.148 131.837 149.337 134.322C149.428 134.413 149.552 134.464 149.681 134.464C149.811 134.464 149.935 134.413 150.026 134.322C152.371 131.896 153.382 128.325 152.524 125.05C151.703 121.918 149.254 119.385 146.216 118.308C146.09 118.276 145.958 118.294 145.846 118.358C145.733 118.421 145.65 118.526 145.614 118.649C143.308 125.978 142.544 133.702 143.368 141.338C143.372 141.433 143.402 141.524 143.456 141.602C143.511 141.68 143.586 141.741 143.674 141.777C143.762 141.814 143.859 141.824 143.952 141.807C144.046 141.79 144.133 141.747 144.203 141.682L149.888 136.934C150.249 136.632 149.86 135.943 149.411 136.122C147.044 137.062 144.633 137.887 142.18 138.6C139.814 139.283 137.312 140.05 134.852 140.293C134.271 140.373 133.68 140.315 133.126 140.125C132.572 139.935 132.07 139.618 131.662 139.199C130.976 138.53 130.398 137.759 129.642 137.16C128.149 135.975 126.267 135.49 124.387 135.393C122.382 135.29 120.375 135.587 118.403 135.93C115.999 136.338 113.595 136.753 111.196 137.195C106.488 138.059 101.796 139.032 97.1817 140.308C91.9932 141.748 86.9121 143.595 82.1184 146.053C81.7705 146.23 81.8135 146.884 82.2356 146.942C97.1113 149.011 112.501 146.329 125.85 139.485C129.668 137.527 133.298 135.227 136.698 132.616C137.031 132.359 136.995 131.658 136.45 131.709C130.281 132.273 125.913 137.099 120.359 139.256C117.002 140.559 113.359 140.783 109.794 140.847C108.993 140.861 108.188 140.888 107.387 140.869C106.898 140.885 106.412 140.8 105.958 140.618C105.567 140.423 105.288 140.108 104.967 139.839C103.832 138.866 102.448 139.339 101.168 138.765C98.534 137.584 97.6839 134.009 97.1934 131.464C97.1094 131.02 96.5172 131.03 96.3023 131.347C93.7617 135.079 89.5152 137.605 84.9911 137.944C80.3224 138.294 75.6694 136.356 72.5621 132.884C72.3002 132.59 71.8625 132.777 71.7452 133.098C71.1394 134.774 72.0345 136.545 73.4083 137.547C75.1769 138.837 77.5474 138.715 79.6208 138.594L79.4919 137.638L47.3055 142.114L38.1537 143.373L38.5309 144.263C42.3847 141.511 45.1851 137.257 49.6701 135.4C51.7787 134.527 54.2274 134.289 56.2481 135.509C58.0265 136.582 59.3358 138.609 58.7886 140.717L59.3905 140.378C48.947 136.562 37.6437 138.374 26.8778 136.562C23.8308 136.083 20.8616 135.201 18.0485 133.941L18.2732 134.492C18.5117 133.129 20.8137 134.079 21.5642 134.453C23.1675 135.282 24.8921 135.855 26.6745 136.15C30.1877 136.709 33.7887 136.159 36.9714 134.575L36.479 133.737L27.4386 140.472L28.1558 140.762C27.1396 137.648 25.7111 133.984 22.2579 132.929C22.1855 132.91 22.1099 132.908 22.0366 132.923C21.9633 132.938 21.8944 132.969 21.8349 133.014C21.7755 133.059 21.7271 133.117 21.6934 133.184C21.6597 133.25 21.6416 133.324 21.6404 133.398C21.445 135.766 20.1044 137.928 18.1951 139.322C16.5359 140.532 13.6143 141.698 11.6444 140.548C11.1617 140.266 10.6673 139.795 10.982 139.209C11.2458 138.722 11.8399 138.444 12.1545 137.975C12.8365 136.944 12.6646 135.498 12.6841 134.326L12.8561 124.621L13.0515 113.572L12.1408 113.817C15.4474 120.531 13.4814 128.971 7.76136 133.723C5.98886 135.194 4.07761 136.477 2.6901 138.347L3.58318 138.722C4.81449 132.54 7.06282 126.602 10.2374 121.15C11.6581 118.719 13.585 116.357 13.755 113.434C13.886 111.098 12.8287 108.936 11.3845 107.158C9.54363 104.894 7.09496 103.161 4.64238 101.617L4.81631 102.283C5.98886 100.633 8.38085 102.571 9.26808 103.542C10.4113 104.791 11.6034 106.144 13.4189 106.218C13.5259 106.217 13.6298 106.182 13.7148 106.118C13.7998 106.053 13.8613 105.962 13.8899 105.86C14.6422 102.006 14.0571 98.0114 12.2307 94.5319C12.049 94.1855 11.4002 94.2302 11.3376 94.6486C10.3715 101.03 10.6368 107.537 12.1193 113.819L12.7193 113.22C10.9892 112.888 9.3396 112.228 7.86102 111.274C7.21808 110.853 6.59077 110.41 5.93805 110.001C5.5472 109.752 5.13485 109.512 4.72251 109.287C4.27108 109.038 3.58319 108.862 3.35454 108.393C3.04772 107.753 3.22947 107.319 3.62813 106.782C3.98185 106.303 4.34143 105.829 4.6756 105.334C5.32637 104.375 5.9185 103.375 6.47155 102.355C7.49167 100.469 8.36913 98.5115 9.36188 96.6122C10.5774 94.2769 12.0021 92.0974 13.8058 90.1727C13.8574 90.1194 13.8962 90.0552 13.9195 89.9849C13.9427 89.9146 13.9498 89.8399 13.9403 89.7665C13.9307 89.6931 13.9047 89.6228 13.8642 89.5607C13.8237 89.4987 13.7697 89.4464 13.7062 89.4079C11.7734 88.0788 9.86022 86.7146 7.90402 85.4225C6.61422 84.5701 4.5818 83.9182 3.57732 85.5607C2.53571 87.2557 4.71273 88.3474 5.92241 88.9565C7.85328 89.9225 9.90614 90.6249 12.0255 91.0446C12.1505 91.075 12.2825 91.0567 12.3944 90.9934C12.5064 90.9301 12.5897 90.8266 12.6274 90.704C15.0116 83.4648 12.9245 75.1825 7.81412 69.5974C6.34888 67.9994 4.63289 66.6488 2.73308 65.5983C2.18394 65.2947 1.68952 66.1354 2.24062 66.439L2.24257 66.4487Z" fill="#000AFF"/>
    <path d="M67.0248 96.8892C62.2599 95.4487 57.8335 93.0711 54.0076 89.8971L53.6617 90.7281C60.4566 90.9013 65.8855 85.4738 68.4006 79.6182C69.7549 76.4637 70.6695 72.4179 68.1387 69.5923C66.0086 67.2045 62.6668 67.6053 60.7478 69.9951C57.8164 73.6283 59.3603 78.3436 58.4027 82.5353L59.1199 82.2454C56.4855 80.2531 54.6557 77.3864 53.9626 74.1654L53.6206 74.7648C59.5682 72.8278 65.9564 72.6749 71.9905 74.325C75.021 75.1377 77.9173 76.3831 80.5892 78.0225C81.9253 78.8438 83.1955 79.767 84.3883 80.7839C85.4396 81.6868 86.362 82.7299 87.4779 83.5648C89.0687 84.748 92.0548 86.0693 93.196 83.5978C93.8077 82.2745 93.2644 80.6068 93.2175 79.2193C93.155 77.3628 93.368 75.4673 94.1048 73.749C94.7537 72.1796 95.8942 70.8609 97.3566 69.9893C98.6034 69.2634 100.526 68.6971 101.943 69.2867C103.26 69.8355 102.879 71.8555 101.93 72.56C100.562 73.5758 98.5643 73.2917 96.9794 73.1535C88.0173 72.3751 79.0551 71.5921 70.093 70.8046L70.5151 71.5363C74.1148 65.4083 82.0549 63.6471 88.6563 64.8128C96.9521 66.2762 103.997 71.2347 111.64 74.4359C115.922 76.2321 120.446 77.5126 125.124 77.3783C125.23 77.3754 125.332 77.3386 125.416 77.2734C125.499 77.2081 125.559 77.1179 125.586 77.0161C125.614 76.9143 125.608 76.8063 125.569 76.7082C125.53 76.6101 125.461 76.5271 125.371 76.4715C119.435 73.0116 112.705 71.1286 105.828 71.0031L105.959 71.9606C118.958 69.4828 132.335 69.7699 145.214 72.8032C148.845 73.6626 152.422 74.7361 155.925 76.0181L156.054 75.0625C153.679 75.2345 151.299 74.7808 149.155 73.7471C147.011 72.7135 145.178 71.1363 143.84 69.1739C143.773 69.065 143.665 68.9862 143.541 68.954C143.416 68.9217 143.284 68.9385 143.172 69.0007C140.295 70.5867 138.765 73.5194 136.858 76.0492C135.025 78.4856 130.995 81.5389 128.005 79.1006V79.7875C132.928 75.9325 138.468 72.9312 144.393 70.9097C147.255 69.9334 150.193 69.1908 153.176 68.6893C156.363 68.1561 159.785 67.7766 162.91 68.8255C165.999 69.8628 168.647 72.7176 168.266 76.1348C168.214 76.6019 168.814 76.7186 169.101 76.4793L172.699 73.5816H172.007C173.582 75.5841 175.401 77.7714 177.946 78.5382C180.863 79.4158 183.486 77.7189 186.007 76.4909C192.093 73.5303 198.744 71.8987 205.514 71.7056L205.266 70.7988C200.328 73.6276 194.875 75.4538 189.224 76.1718C185.692 76.5999 179.857 76.343 178.954 71.98L178.612 72.5775C182.259 71.8275 185.952 71.321 189.667 71.0615C191.481 70.9318 193.298 70.8669 195.118 70.8669C196.544 70.8669 198.11 70.7424 199.487 71.1861C200.199 71.4138 200.877 71.836 201.012 72.6261C201.17 73.5427 200.554 74.3445 199.966 74.9866C198.973 76.0706 197.867 77.0105 196.953 78.1684C195.225 80.3567 193.938 82.8573 193.163 85.5322C192.289 88.5629 192.097 91.7485 192.603 94.8615L193.544 94.6027L191.188 86.6745C191.008 86.0751 190.085 86.3262 190.246 86.9333C191.686 92.4211 197.15 95.1748 200.007 99.7771C200.789 101.036 201.42 102.449 201.547 103.94C201.678 105.497 201.178 106.876 200.488 108.242C199.45 110.297 198.473 112.329 199.235 114.649C200.447 118.346 205.862 121.779 203.916 126.091C203.019 128.084 200.812 129.193 198.835 129.832C197.732 130.185 196.598 130.435 195.448 130.579C194.008 130.762 192.292 131.003 191.813 129.26C191.395 127.74 191.541 125.926 191.651 124.371C191.772 122.686 192.054 121.016 192.491 119.383C193.352 116.178 194.792 113.156 196.74 110.465H195.895C203.099 123.258 196.421 138.275 194.823 151.582C194.32 155.757 194.293 159.968 195.127 164.101L196.069 163.842C194.932 158.728 195.436 153.387 197.512 148.574C197.902 147.685 198.414 146.19 199.485 145.937C200.842 145.618 201.961 147.688 202.462 148.638C203.564 150.759 203.816 153.188 204.195 155.51C204.295 156.121 204.391 156.73 204.527 157.333C204.664 157.936 204.918 158.582 204.83 159.191C204.658 160.526 203.04 160.871 202.002 161.35C200.221 162.166 198.573 163.246 197.117 164.555C194.332 167.085 192.507 170.632 192.685 174.444C192.89 178.839 196.007 182.682 200.451 183.396L200.334 182.507C196.265 185.262 191.513 186.848 186.599 187.092C186.208 187.111 185.919 187.625 186.253 187.923L203.908 203.6L204.123 202.786C198.26 203.697 192.202 204.448 186.286 203.565C183.523 203.15 180.797 202.354 178.368 200.957C177.129 200.249 175.985 199.387 174.964 198.392C174.051 197.509 173.074 196.304 171.731 196.11C170.168 195.897 169.542 197.277 168.964 198.458L165.974 204.491C165.747 204.952 166.365 205.538 166.742 205.075C170.61 200.279 175.075 195.993 180.031 192.321H179.538L187.064 197.234C187.914 197.789 189.577 198.659 188.794 199.889C188.233 200.77 186.92 201.163 185.941 201.306C184.756 201.479 183.472 201.306 182.286 201.208C180.813 201.076 179.355 200.87 177.891 200.613C175.212 200.144 172.562 199.519 169.916 198.887C164.801 197.664 159.632 196.366 154.35 196.209C151.922 196.121 149.493 196.338 147.119 196.855C144.46 197.454 141.982 198.579 139.445 199.544C136.803 200.547 134.012 201.376 131.163 200.92C128.75 200.531 126.354 199.307 125.371 196.96C125.34 196.859 125.278 196.77 125.193 196.706C125.109 196.642 125.006 196.606 124.9 196.604C122.787 196.643 121.687 198.838 121.943 200.739C122.287 203.283 124.937 204.524 127.163 205.098C133.965 206.85 141.429 207.019 148.372 206.266C152.401 205.834 156.383 205.038 160.268 203.888C160.368 203.857 160.456 203.794 160.519 203.71C160.581 203.625 160.615 203.523 160.615 203.418C160.615 203.313 160.581 203.211 160.519 203.126C160.456 203.042 160.368 202.979 160.268 202.948C145.452 198.955 129.856 198.815 114.97 202.541C113.057 203.022 111.177 203.608 109.287 204.172C107.368 204.746 105.77 204.773 104.109 203.612C102.506 202.495 100.306 199.902 98.1344 201.224C96.9169 201.965 96.743 203.617 95.4532 204.273C94.1634 204.929 92.5394 204.441 91.361 203.763C88.5762 202.16 87.6831 198.828 85.8246 196.4C84.8768 195.162 83.6046 193.963 82.0099 193.675C80.4153 193.387 79.274 194.313 78.4923 195.621C76.112 199.531 73.9233 203.569 71.6525 207.539L72.3228 207.364C69.1209 205.034 66.8244 201.675 65.821 197.855C65.7233 197.487 65.0979 197.339 64.9279 197.738C63.4915 201.123 59.9798 203.043 56.4191 203.409C51.9752 203.866 47.7579 202.138 43.7029 200.582C40.9063 199.509 37.1874 198.355 34.4026 200.081C33.0718 200.907 32.3526 202.222 31.7937 203.643C31.1175 205.345 30.5547 207.369 28.6669 208.101C26.9081 208.786 24.5943 208.183 23.6895 206.447C22.7846 204.711 23.3592 202.36 24.9812 201.259L24.3949 201.183C33.8554 209.059 47.0388 211.937 58.9362 208.681C59.0371 208.65 59.1254 208.588 59.1881 208.504C59.2509 208.419 59.2847 208.317 59.2847 208.212C59.2847 208.107 59.2509 208.005 59.1881 207.92C59.1254 207.836 59.0371 207.774 58.9362 207.743C48.0257 204.759 36.8541 202.818 25.5733 201.948C21.3698 201.623 16.3044 201.111 12.9294 204.195C11.5341 205.47 10.5608 207.397 8.8587 208.313C7.91871 208.819 6.67972 208.817 6.07977 207.815C5.58534 206.988 5.50912 205.927 5.23357 205.017C3.70145 199.932 1.54592 194.119 4.67271 189.166L4.00435 189.341C8.20793 192.26 11.0142 196.446 13.4394 200.86C13.4836 200.932 13.5456 200.992 13.6195 201.033C13.6934 201.074 13.7768 201.096 13.8616 201.096C13.9463 201.096 14.0297 201.074 14.1036 201.033C14.1775 200.992 14.2395 200.932 14.2837 200.86C16.6679 197.016 18.6768 192.591 16.0151 188.364C14.954 186.679 13.203 185.056 12.9157 183.007C12.689 181.401 13.3593 178.986 15.3605 179.092C15.9897 179.127 15.9878 178.154 15.3605 178.119C13.756 178.035 12.6382 179.195 12.1633 180.635C11.5634 182.456 12.048 184.21 13.0349 185.788C14.4029 187.964 16.3239 189.808 16.3845 192.539C16.4451 195.382 14.8914 198.03 13.4394 200.369H14.2837C11.7725 195.796 8.84697 191.523 4.49878 188.499C4.38648 188.435 4.25367 188.418 4.12877 188.451C4.00387 188.483 3.89679 188.563 3.83043 188.674C1.16484 192.889 2.05988 198.042 3.41222 202.547C3.73858 203.633 4.14897 204.688 4.43625 205.795C4.68443 206.737 4.82709 207.774 5.41337 208.58C6.45107 209.996 8.43463 209.802 9.74202 208.901C11.3777 207.776 12.3373 205.949 13.8459 204.68C15.8178 203.02 18.5361 202.685 21.018 202.683C26.8475 202.683 32.8001 203.528 38.5515 204.407C45.3312 205.447 52.0449 206.876 58.6587 208.689V207.751C47.1169 210.909 34.258 208.152 25.0672 200.504C24.9906 200.43 24.8922 200.383 24.7866 200.369C24.6811 200.356 24.5739 200.376 24.4809 200.428C21.8349 202.242 21.4303 206.501 24.1741 208.445C24.8612 208.912 25.6497 209.21 26.4749 209.315C27.3001 209.419 28.1384 209.328 28.921 209.047C30.541 208.463 31.4615 207.085 32.0907 205.556C32.9115 203.577 33.4802 201.339 35.7237 200.525C37.6564 199.827 39.8686 200.331 41.7584 200.936C46.3821 202.399 50.6971 204.678 55.7 204.439C59.8039 204.244 64.1032 202.16 65.7643 198.235L64.8712 198.118C65.9513 202.179 68.4069 205.743 71.8225 208.208C71.9347 208.272 72.0676 208.29 72.1927 208.257C72.3177 208.224 72.4248 208.144 72.4908 208.033L78.4395 197.674C79.3873 196.024 80.3332 193.887 82.6216 194.899C84.1694 195.582 85.209 197.088 86.0494 198.49C87.4545 200.825 88.5742 203.403 91.1089 204.746C93.1003 205.801 95.758 206.023 97.2179 204.009C98.0621 202.841 98.6425 201.284 100.354 202.103C101.486 202.646 102.402 203.582 103.409 204.312C104.581 205.157 105.805 205.711 107.278 205.6C109.023 205.472 110.712 204.744 112.381 204.263C119.64 202.177 127.139 201.03 134.692 200.85C143.237 200.644 151.767 201.672 160.016 203.902V202.962C152.48 205.195 144.603 206.063 136.76 205.525C134.806 205.395 132.86 205.17 130.923 204.851C129.248 204.579 127.501 204.32 125.916 203.684C124.548 203.129 123.073 202.113 122.908 200.517C122.779 199.235 123.44 197.61 124.915 197.583L124.444 197.225C126.217 201.457 131.353 202.58 135.492 201.767C138.523 201.169 141.308 199.782 144.196 198.746C147.077 197.714 150.114 197.181 153.176 197.172C159.253 197.141 165.186 198.774 171.053 200.159C174.039 200.864 177.039 201.522 180.082 201.936C182.48 202.259 185.264 202.773 187.592 201.88C189.466 201.16 190.979 199.155 189.114 197.482C187.897 196.386 186.324 195.584 184.954 194.691L180.045 191.486C179.97 191.441 179.885 191.417 179.798 191.417C179.712 191.417 179.626 191.441 179.552 191.486C174.525 195.2 169.994 199.537 166.068 204.392L166.834 204.976L169.296 200C169.669 199.241 169.996 198.402 170.469 197.692C171.168 196.616 172.241 197.174 173.009 197.818C174.016 198.653 174.854 199.649 175.9 200.449C176.941 201.246 178.064 201.929 179.251 202.489C184.115 204.783 189.679 205.098 194.973 204.793C198.131 204.61 201.272 204.19 204.396 203.703C204.758 203.649 204.867 203.119 204.611 202.89L186.949 187.236L186.603 188.067C191.69 187.824 196.612 186.192 200.83 183.349C201.141 183.141 201.164 182.534 200.715 182.46C195.737 181.651 192.964 176.873 193.81 172.101C194.592 167.688 198.086 164.37 201.973 162.439C203.777 161.544 206.077 161.015 205.778 158.526C205.637 157.372 205.303 156.232 205.119 155.081C204.912 153.803 204.729 152.515 204.435 151.254C203.947 149.214 203.028 146.857 201.309 145.523C199.55 144.16 197.945 145.478 197.111 147.132C194.49 152.326 193.886 158.448 195.133 164.095C195.268 164.708 196.198 164.446 196.075 163.837C193.103 149.115 201.447 134.952 199.888 120.197C199.509 116.606 198.52 113.125 196.746 109.967C196.701 109.895 196.639 109.836 196.565 109.795C196.491 109.754 196.408 109.732 196.323 109.732C196.239 109.732 196.156 109.754 196.082 109.795C196.008 109.836 195.946 109.895 195.901 109.967C192.219 115.074 190.368 121.266 190.644 127.547C190.703 128.759 190.775 130.203 191.77 131.05C192.726 131.869 194.105 131.698 195.264 131.564C197.594 131.293 199.99 130.703 202.002 129.462C203.781 128.364 205.149 126.693 205.282 124.55C205.424 122.232 204.023 120.247 202.702 118.475C201.252 116.529 199.442 114.337 200.042 111.743C200.384 110.258 201.281 108.97 201.877 107.585C202.444 106.319 202.655 104.924 202.489 103.549C201.565 96.2665 192.986 93.4895 191.195 86.6687L190.254 86.9275L192.61 94.8556C192.792 95.4686 193.65 95.202 193.552 94.5968C193.053 91.3673 193.335 88.0656 194.376 84.9666C195.417 81.8677 197.186 79.0613 199.536 76.7809C200.513 75.841 201.735 74.7998 201.987 73.389C202.08 72.8687 202.013 72.3326 201.794 71.8511C201.576 71.3696 201.215 70.9655 200.762 70.6918C199.736 70.0457 198.452 69.9387 197.267 69.9134C195.256 69.8628 193.242 69.8958 191.231 69.997C186.905 70.2179 182.602 70.7669 178.36 71.6395C178.236 71.6762 178.132 71.7591 178.069 71.8709C178.005 71.9827 177.988 72.1145 178.02 72.2389C178.938 76.6777 184.481 77.5729 188.28 77.246C194.432 76.7186 200.416 74.6656 205.768 71.6395C205.858 71.5839 205.928 71.5008 205.967 71.4027C206.006 71.3046 206.012 71.1966 205.984 71.0948C205.956 70.993 205.896 70.9028 205.813 70.8376C205.73 70.7723 205.628 70.7355 205.522 70.7326C199.438 70.9038 193.44 72.2136 187.842 74.5935C186.46 75.1774 185.126 75.8507 183.789 76.526C182.382 77.2382 180.858 77.9485 179.237 77.8026C176.382 77.5476 174.352 74.975 172.706 72.8927C172.532 72.6709 172.2 72.7448 172.015 72.8927L168.417 75.7904L169.251 76.1348C169.556 73.4104 168.055 70.8805 165.898 69.2789C163.181 67.2745 159.623 67.0118 156.363 67.2959C149.629 67.8797 142.953 69.9717 136.93 72.99C133.53 74.7017 130.311 76.7488 127.321 79.1006C127.23 79.1918 127.178 79.3153 127.178 79.444C127.178 79.5728 127.23 79.6963 127.321 79.7875C130.075 82.0274 133.784 80.5367 136.115 78.3883C138.937 75.7767 140.182 71.7718 143.68 69.8394L143.012 69.6662C144.436 71.775 146.393 73.4736 148.685 74.5915C150.977 75.7095 153.524 76.2075 156.07 76.0356C156.186 76.0327 156.298 75.9886 156.385 75.9112C156.472 75.8339 156.528 75.7283 156.544 75.6133C156.559 75.4984 156.534 75.3816 156.471 75.2839C156.408 75.1862 156.312 75.1139 156.201 75.0801C143.592 70.4819 130.146 68.6015 116.752 69.5631C113.048 69.8343 109.362 70.321 105.715 71.0206C105.16 71.1277 105.308 71.9664 105.844 71.9761C112.548 72.0995 119.107 73.937 124.892 77.3122L125.138 76.4053C108.556 76.8821 95.1268 58.891 78.123 64.5345C74.6366 65.6905 71.5528 67.8622 69.6787 71.0518C69.6372 71.126 69.6157 71.2096 69.6163 71.2946C69.6168 71.3795 69.6395 71.4628 69.682 71.5365C69.7244 71.6101 69.7853 71.6716 69.8587 71.7149C69.9321 71.7581 70.0155 71.7818 70.1008 71.7835L96.0004 74.0448C98.4901 74.2627 102.897 74.8894 103.673 71.5869C103.897 70.6353 103.725 69.4638 102.971 68.7788C102.143 68.0276 100.626 68.049 99.5981 68.195C96.4127 68.6445 93.9816 71.1355 92.9537 74.0662C92.4023 75.7286 92.1657 77.4786 92.256 79.2271C92.3029 80.5776 93.2586 83.8061 91.1695 84.0454C89.6764 84.2167 88.0427 82.8778 87.046 81.9282C85.9162 80.8163 84.7207 79.7726 83.4658 78.8028C80.8867 76.881 78.0357 75.3503 75.0059 74.2608C68.0938 71.7504 60.3765 71.5169 53.3822 73.8346C53.259 73.8713 53.1548 73.9539 53.0911 74.0651C53.0274 74.1764 53.0092 74.3078 53.0402 74.432C53.8063 77.8946 55.7961 80.9678 58.647 83.0919C58.7118 83.129 58.7842 83.151 58.8588 83.1561C58.9334 83.1613 59.0082 83.1494 59.0775 83.1214C59.1468 83.0935 59.2088 83.0502 59.2588 82.9948C59.3088 82.9395 59.3455 82.8735 59.3661 82.8019C60.1166 79.5209 59.202 75.9675 60.3433 72.776C61.3204 70.0515 64.367 67.4536 67.0776 69.8842C69.8272 72.3498 68.766 76.4695 67.4684 79.4022C66.3281 82.0299 64.6363 84.3841 62.5066 86.3067C60.0599 88.4785 57.0015 89.8466 53.689 89.7629C53.2982 89.7512 53.0129 90.3175 53.3451 90.5919C57.2857 93.8764 61.8485 96.3395 66.7629 97.835C67.3668 98.016 67.6248 97.078 67.0229 96.897L67.0248 96.8892Z" fill="#000AFF"/>
</svg>
