<svg width="742" height="757" viewBox="0 0 742 757" fill="none" xmlns="http://www.w3.org/2000/svg">
    <path d="M181.704 241.415V290.791V350.652H241.053V290.791H679.637V694.771H62.2987V636.645H2.9502V754.037H11.4923H62.2987H738.986V745.499V694.771V290.791V264.061V231.525H181.704V241.415Z" stroke="#000AFF" stroke-width="5" stroke-miterlimit="10"/>
    <path d="M2.9502 3V11.5374V62.2659V466.238V492.976V525.504H560.232V515.622V466.238V406.385H500.883V466.238H62.2987V62.2659H679.637V120.385H738.986V62.2659V11.1551V3H2.9502Z" stroke="#000AFF" stroke-width="5" stroke-miterlimit="10"/>
    <path d="M687.485 109.179C704.569 103.559 721.462 97.3575 738.525 91.7438L736.349 90.505C740.063 101.124 727.991 108.542 718.676 106.461C709.567 104.422 700.649 97.7609 697.331 88.8626C694.609 81.5712 696.551 73.6993 703.874 70.2518C709.304 67.6963 717.577 67.7387 720.179 74.1736C720.888 75.8301 723.915 75.8797 723.66 73.7064C722.093 60.4969 720.916 47.1813 718.938 34.0638C718.3 29.8164 716.471 26.029 712.012 24.9176C707.114 23.693 701.726 25.9936 697.126 27.3953L657.002 39.5854C644.363 43.4293 631.773 47.7192 618.999 51.0888C609.84 53.5028 595.605 55.6336 590.444 45.3761L589.381 47.974C619.14 36.0488 650.55 28.739 682.523 26.298L681.629 22.9992C657.846 36.4494 631.44 50.8411 603.304 50.3456C588.835 50.0837 576.267 44.8027 563.953 37.6033C552.299 30.7862 540.772 24.2947 527.885 20.0331C515.1 15.7912 501.754 13.4699 488.286 13.1452C477.454 12.9045 468.522 15.8636 460.76 23.4452C454.288 29.8164 449.417 37.5324 442.867 43.8116C439.918 46.6432 436.537 49.1987 432.525 50.2676C431.057 50.657 427.888 51.4428 426.775 50.3951C424.266 48.0165 426.882 42.7922 428.76 40.9233C433.269 36.4352 441.315 35.8123 447.241 34.6797C454.732 33.2639 462.265 32.0722 469.841 31.1047C484.827 29.2213 499.914 28.2592 515.018 28.2236C529.651 28.1853 544.273 29.0197 558.807 30.7224C565.236 31.4728 574.487 31.8267 578.556 37.8015C580.151 40.1305 580.974 43.4647 579.669 46.1193C577.699 50.1119 572.127 50.0199 568.327 49.3049C557.042 47.1812 548.755 37.7094 539.511 31.6073C529.388 24.9672 517.436 22.1427 505.413 21.9374C477.95 21.4702 452.905 33.816 426.499 39.3022C412.073 42.2584 397.201 42.3138 382.753 39.4651C368.802 36.8388 355.248 32.5276 341.467 29.1792C319.676 23.8912 295.099 21.2507 274.257 31.4516C269.481 33.8145 265.08 36.8704 261.199 40.5199C259.86 41.7658 261.27 43.8753 262.922 43.4789C310.85 31.8622 359.813 44.569 407.855 48.4342C421.706 49.668 435.632 49.8407 449.51 48.9509C449.855 48.9407 450.19 48.8312 450.474 48.6355C450.758 48.4399 450.98 48.1664 451.113 47.848C451.245 47.5295 451.283 47.1797 451.221 46.8404C451.159 46.5011 451.001 46.1868 450.764 45.9353C433.304 28.2377 409.152 20.4507 385.723 14.2C374.034 11.071 360.203 6.2431 348.96 13.308C343.736 16.5997 339.858 21.5551 335.704 26.0503C331.183 30.9016 326.42 35.523 321.434 39.8969C316.096 44.5784 310.504 48.9623 304.683 53.0285C302.103 54.8266 299.465 56.8441 296.658 58.2812C293.22 60.0438 289.413 60.1288 285.642 59.9305C279.61 59.6271 273.563 59.7667 267.551 60.3483C265.183 60.5748 262.589 60.8438 260.242 60.1713C256.641 59.1307 255.55 55.8247 254.947 52.441C253.997 47.0326 254.04 41.5321 250.828 36.8245C248.4 33.4077 245.013 30.7846 241.095 29.2854C231.943 25.5689 221.608 26.7865 212.697 30.5243C205.778 33.4267 199.391 37.3909 192.706 40.7676C189.176 42.6177 185.484 44.1412 181.676 45.3194C180.98 45.6024 180.251 45.7951 179.507 45.8928C177.33 45.8008 176.388 44.7602 175.806 42.9126C175.395 41.61 175.005 40.3216 174.466 39.0615C172.098 33.6867 168.254 29.0915 163.379 25.8079C158.503 22.5243 152.797 20.6866 146.919 20.5074L147.387 23.9832C159.545 20.8819 172.255 20.614 184.533 23.2003C196.812 25.7866 208.33 31.1578 218.198 38.8987V36.3998C208.323 45.3123 194.514 45.7017 182.045 43.1957C168.384 40.449 155.964 33.9929 142.772 29.7455C136.009 27.5793 128.984 25.9299 121.853 25.7247C114.721 25.5194 108.128 27.2466 101.493 29.9721C98.1755 31.3383 94.624 32.8603 90.9519 32.5913C87.1522 32.3081 83.863 29.8872 80.3965 28.5846C75.0089 26.5742 69.0968 27.1334 63.8581 29.3349C49.6802 35.2601 44.1863 50.2747 39.6706 63.732C39.1106 65.4026 41.457 66.7477 42.6267 65.4593C55.1528 51.6623 69.1606 35.9539 88.0455 31.4091C103.109 27.7847 121.746 32.2656 128.842 47.1812L130.841 44.5832L68.2035 32.0887C57.96 30.0429 47.7307 27.7493 37.4305 26.0149C29.0656 24.5991 20.1761 24.1672 12.4633 28.3439C0.029373 35.076 -1.31753 54.2815 5.45949 65.431C9.25206 71.6818 15.384 74.2374 22.4729 74.6833C27.2296 74.9877 32.3194 74.393 36.7075 76.6654C38.3473 77.5342 39.7664 78.766 40.8562 80.2665C41.946 81.7671 42.6777 83.4967 42.9953 85.3231C46.8234 104.231 24.9895 115.664 19.8571 131.939C19.7881 132.201 19.7799 132.476 19.8332 132.742C19.8864 133.007 19.9997 133.258 20.1645 133.474C20.3292 133.689 20.541 133.865 20.7838 133.986C21.0265 134.108 21.2939 134.173 21.5655 134.176C33.5174 134.565 44.6329 123.663 43.2931 111.523C42.01 99.8563 30.1786 91.7013 18.8575 93.4145C18.409 93.5449 18.0291 93.845 17.7988 94.2509C17.5684 94.6567 17.5057 95.1364 17.6241 95.5877L31.3341 151.64C33.5883 160.842 36.0553 170.045 38.104 179.312C38.8767 182.851 39.2666 186.844 35.0557 187.913C32.6668 188.521 29.9872 188.139 27.5698 187.913C23.1322 187.509 17.9573 186.66 13.8811 188.989C9.21662 191.65 8.57862 197.229 10.8116 201.731C14.2923 208.81 22.3453 210.176 27.5557 215.4C32.9362 220.788 33.0992 228.78 31.327 235.746C27.0736 252.325 11.719 263.75 10.3367 281.391H13.8811L14.831 258.186C14.9232 255.914 11.3787 255.914 11.2866 258.186L10.3438 281.441C10.2516 283.734 13.7181 283.685 13.8882 281.441C15.1501 265.272 29.1932 254.215 34.0066 239.299C35.956 233.275 36.8067 226.423 34.7155 220.32C32.362 213.539 26.868 210.339 21.0268 206.828C17.7091 204.831 14.4412 202.432 13.3566 198.51C12.272 194.588 14.8169 191.742 18.5953 191.169C23.5575 190.411 28.6048 192.061 33.6025 191.686C37.8559 191.367 41.4925 189.215 42.1943 184.727C42.811 180.805 41.0813 176.445 40.1668 172.693L36.7004 158.535L21.1047 94.6745L19.8642 96.8549C29.2357 95.439 39.2949 102.907 39.9046 112.542C40.5284 122.495 31.327 131.011 21.6293 130.693L23.3377 132.937C27.9597 118.276 43.3923 109.944 46.3768 94.4621C47.4684 88.8485 47.1282 82.5481 43.5412 77.8476C39.0184 71.9296 31.8374 71.4765 24.9824 71.2995C16.2134 71.0305 9.43638 68.0573 6.59372 59.2652C4.33235 52.2427 4.46704 43.4364 8.45101 37.044C13.5763 28.797 24.4224 27.8979 33.1772 28.9881C43.208 30.2411 53.1679 32.7541 63.0712 34.7292L129.984 48.0732C130.321 48.1554 130.676 48.1378 131.003 48.0226C131.331 47.9074 131.619 47.6996 131.83 47.4244C132.042 47.1491 132.169 46.8184 132.196 46.4723C132.223 46.1263 132.149 45.7799 131.983 45.4752C124.638 30.0217 105.902 24.7407 90.0233 27.4873C69.2243 31.0835 53.6854 48.1864 40.2094 63.0312L43.1726 64.7514C47.4755 51.9171 52.8844 36.5485 67.1615 31.9683C70.2773 30.894 73.6199 30.65 76.8591 31.2604C80.4532 32.025 83.4873 34.1699 86.9254 35.3521C93.3054 37.5183 99.09 34.7929 104.931 32.4427C132.713 21.2507 159.119 43.7691 186.099 47.4573C198.462 49.1492 211.201 47.5352 220.757 38.9129C221.088 38.5812 221.274 38.1319 221.274 37.6635C221.274 37.195 221.088 36.7457 220.757 36.414C210.435 28.2483 198.365 22.5717 185.487 19.8263C172.608 17.0808 159.269 17.3406 146.508 20.5853C144.544 21.0879 145.005 24.0045 146.983 24.0611C153.155 24.2269 159.086 26.4892 163.798 30.4747C168.483 34.4389 170.809 39.1607 172.744 44.8381C174.41 49.7155 178.209 50.0483 182.668 48.7457C188.786 46.9618 194.486 43.9461 200.057 40.9163C210.287 35.3521 220.7 29.3845 232.773 30.8074C237.643 31.3878 242.697 33.1293 246.199 36.7043C250.559 41.1641 250.516 47.0113 251.473 52.802C252.225 57.3184 253.933 61.7145 258.562 63.3569C263.028 64.9426 268.118 63.8099 272.691 63.3569C278.787 62.741 284.841 64.001 290.916 63.4772C297.204 62.9391 302.032 59.2298 307.036 55.7398C317.684 48.2844 327.571 39.8005 336.555 30.411C341.106 25.6468 345.224 19.9552 350.86 16.3874C357.375 12.2603 365.109 12.8478 372.332 14.4406C385.997 17.3611 399.422 21.3083 412.491 26.2485C425.762 31.3312 438.316 38.2829 448.361 48.4554L449.616 45.4327C400.043 48.9722 351.505 34.354 302.025 35.1752C288.572 35.3257 275.177 36.9639 262.086 40.0597L263.815 43.0116C283.218 24.9105 312.523 26.1635 336.689 31.6852C351.399 35.0335 365.754 39.7341 380.598 42.6436C394.904 45.4752 409.174 46.0698 423.571 43.5072C452.48 38.3678 479.723 23.6363 509.744 25.6751C516.655 26.0782 523.447 27.6559 529.827 30.3402C536.087 33.0515 541.432 37.1573 546.791 41.2915C554.943 47.5847 566.2 56.1575 577.273 52.4551C581.924 50.9048 584.362 46.622 583.823 41.8366C583.221 36.5273 579.52 32.5843 574.778 30.5101C568.802 27.8484 561.784 27.5298 555.368 26.836C547.627 26.0054 539.865 25.4202 532.081 25.0804C500.89 23.7283 468.99 26.0362 438.508 32.917C433.453 34.0567 427.917 35.8406 424.798 40.2791C422.324 43.8186 421.331 49.4819 424.372 53.0214C426.768 55.7964 432.638 54.1965 435.629 53.0214C439.486 51.5206 442.803 48.9368 445.738 46.0627C452.522 39.4297 457.577 31.1967 464.588 24.8256C468.841 20.925 473.676 18.1642 479.425 17.2085C486.762 15.9839 494.659 16.8405 501.975 17.7891C517.037 19.766 531.657 24.2703 545.217 31.1118C557.857 37.4829 569.32 46.2963 582.944 50.6641C610.591 59.5483 639.528 48.9722 664.212 36.506C670.705 33.2284 677.078 29.7172 683.409 26.1423C684.876 25.314 684.309 22.7089 682.515 22.8434C650.234 25.2799 618.515 32.6328 588.46 44.6469C588.202 44.7252 587.966 44.86 587.767 45.0412C587.568 45.2225 587.413 45.4457 587.312 45.6946C587.21 45.9435 587.166 46.2119 587.182 46.4801C587.198 46.7483 587.273 47.0097 587.403 47.245C596.293 64.8364 623.082 53.6869 636.48 49.6164L675.292 37.8085L694.701 31.9117C699.387 30.4959 707.681 26.3122 712.523 28.8606C716.025 30.7083 715.791 36.5909 716.188 39.9252L717.528 51.2516L720.207 73.8267L723.688 73.3525C718.385 60.3554 698.373 64.3195 693.794 75.9362C686.911 93.3861 709 113.179 725.765 110.34C735.158 108.748 743.225 99.3892 739.829 89.6838C739.699 89.2356 739.398 88.8557 738.992 88.6245C738.586 88.3933 738.106 88.3289 737.653 88.445C720.562 94.0657 703.669 100.267 686.613 105.888C684.486 106.596 685.379 110.015 687.556 109.3L687.485 109.179Z" fill="#000AFF"/>
    <path d="M32.6101 265.442C34.8928 265.442 34.8999 261.902 32.6101 261.902C30.3204 261.902 30.3275 265.442 32.6101 265.442Z" fill="#000AFF"/>
    <path d="M1.87992 233.805C25.1529 246.71 39.5221 272.867 39.593 299.265C39.6102 306.693 38.4351 314.075 36.1123 321.132L38.2957 319.893C32.4787 318.757 26.7975 317.013 21.3461 314.69C18.5105 313.472 5.91351 308.793 10.3512 304.447C14.7888 300.1 22.0266 306.889 25.6207 309.402L41.6417 320.452L41.2801 317.67C35.1267 324.364 29.8678 331.826 25.6349 339.87C21.5304 347.515 18.0497 355.444 13.9027 363.103C11.6695 367.255 9.19602 371.273 6.4948 375.138C4.05621 378.607 0.82367 381.353 1.98625 385.926C2.23528 387.264 2.78553 388.527 3.59543 389.622C4.82181 391.037 7.06192 391.667 8.65693 392.531C11.854 394.273 14.8952 396.241 17.8725 398.279C24.1792 402.698 31.3173 405.795 38.8557 407.383C39.1574 407.458 39.4734 407.454 39.773 407.371C40.0726 407.288 40.3456 407.129 40.5655 406.91C40.7853 406.69 40.9445 406.418 41.0275 406.119C41.1105 405.819 41.1145 405.504 41.0391 405.203C35.7924 382.969 34.8301 359.942 38.2036 337.35L34.9639 337.775C41.1523 349.592 43.1512 363.153 40.6351 376.249L42.3435 374.954C34.3684 374.628 30.5759 365.468 24.5574 361.504C19.4534 358.155 12.088 356.754 8.08273 362.374C7.84889 362.78 7.78399 363.261 7.902 363.714C8.02002 364.167 8.3115 364.555 8.71363 364.795C22.3527 373.396 41.0108 386.443 40.0183 404.721C39.4512 415.134 31.7526 423.983 26.7904 432.69C21.5966 441.861 17.0968 451.407 13.3285 461.247C9.01453 472.457 5.6682 484.014 3.32607 495.793C3.23094 496.201 3.2834 496.63 3.47417 497.003C3.66495 497.377 3.98175 497.671 4.3686 497.833C4.75545 497.996 5.18742 498.017 5.58817 497.892C5.98893 497.768 6.33267 497.505 6.55862 497.152C11.3791 490.647 18.2482 486.173 24.4014 481.047C29.8459 476.567 34.4765 471.184 38.0901 465.134C44.9682 453.421 48.0555 439.872 46.93 426.341C46.2887 418.698 44.226 411.241 40.8477 404.353C40.0396 402.711 37.5726 403.589 37.5443 405.245C37.0693 432.145 36.8354 459.117 36.1265 486.038C36.0485 488.919 35.7862 491.461 33.5745 493.521C32.0362 494.936 30.3845 496.267 29.8244 498.398C28.7824 502.391 32.178 505.583 35.4956 507.07C43.421 510.609 53.8417 507.219 60.6187 502.624C69.1255 496.855 74.9738 487.68 75.8032 477.366L73.5631 479.079C84.721 482.499 89.2155 495.064 92.4764 505.095C92.7954 506.072 94.1139 506.879 95.078 506.15L127.871 481.649C128.25 481.4 128.518 481.015 128.621 480.574C128.724 480.133 128.654 479.67 128.425 479.279C128.196 478.888 127.826 478.599 127.391 478.473C126.955 478.346 126.488 478.391 126.085 478.598C112.905 485.125 97.7347 486.408 83.6435 482.187C77.8165 480.439 72.6132 476.68 66.6301 475.625C62.5398 474.917 57.4925 475.547 56.656 480.403C56.5622 480.779 56.5906 481.175 56.7372 481.534C56.8837 481.893 57.1409 482.196 57.4713 482.399C94.2911 499.425 135.79 493.726 174.956 498.49C186.308 499.767 197.474 502.351 208.231 506.192C208.684 506.31 209.165 506.246 209.572 506.015C209.979 505.784 210.279 505.403 210.408 504.953C213.633 492.65 203 480.885 191.211 478.832C176.104 476.248 162.38 485.981 151.959 495.715C145.346 501.888 139.157 508.564 131.77 513.852C131.411 514.075 131.143 514.419 131.015 514.821C130.886 515.224 130.906 515.659 131.07 516.049C131.233 516.438 131.531 516.757 131.909 516.947C132.287 517.137 132.72 517.187 133.131 517.087L249.886 500.805L283.09 496.182C285.061 495.906 284.6 492.586 282.615 492.707C276.406 493.089 269.465 493.641 263.773 490.583C259.038 488.049 255.536 482.534 257.471 477.175L254.508 477.961C273.598 499.325 306.257 503.615 330.09 487.659C336.444 483.407 341.909 477.961 346.182 471.625L342.942 471.207C344.658 480.148 347.415 490.413 354.412 496.77C357.957 499.991 362.04 501.322 366.754 501.577C370.164 501.761 371.567 502.95 374.027 505.024C376.15 506.78 378.782 507.808 381.534 507.955C388.063 508.528 394.946 507.997 401.482 507.643C408.046 507.356 414.574 506.523 420.998 505.152C432.865 502.483 443.137 496.593 453.331 490.186C464.255 483.32 475.576 475.929 488.775 474.719L487.882 471.42C445.15 504.337 392.182 523.288 338.263 525.398C323.159 525.995 308.031 525.253 293.057 523.182L293.476 526.417C324.532 510.447 358.658 502.001 392.784 495.524C401.291 493.903 409.883 492.402 418.453 490.93C426.145 489.599 433.872 488.098 441.712 488.034C449.056 487.985 456.783 489.33 462.504 494.271C467.792 498.837 471.167 505.152 478.808 505.944C483.416 506.419 488.13 505.173 492.596 504.196C497.606 503.091 502.589 501.855 507.547 500.486C517.44 497.725 527.177 494.435 536.718 490.632L534.995 487.673L514.374 504.939L517.4 506.192C514.424 478.723 517.158 450.936 525.432 424.571L523.256 425.81C528.181 427.574 532.608 430.5 536.159 434.337C539.711 438.175 542.283 442.812 543.658 447.854C546.493 458.536 543.133 470.231 535.52 478.145H538.022C530.515 469.554 525.159 459.304 522.394 448.241C519.63 437.178 519.537 425.618 522.122 414.511L519.945 415.75L546.486 423.169C548.684 423.785 549.627 420.338 547.429 419.757L520.824 412.402C520.372 412.282 519.889 412.343 519.481 412.573C519.073 412.804 518.772 413.184 518.641 413.634C515.906 425.344 516.005 437.536 518.93 449.2C521.854 460.865 527.519 471.665 535.456 480.708C535.789 481.037 536.239 481.221 536.707 481.221C537.176 481.221 537.625 481.037 537.958 480.708C546.465 471.88 550.13 458.89 547.018 446.976C544.041 435.586 535.158 426.369 524.135 422.454C523.681 422.338 523.2 422.402 522.793 422.633C522.385 422.864 522.084 423.244 521.952 423.693C513.588 450.354 510.815 478.449 513.806 506.228C513.818 506.572 513.929 506.906 514.126 507.19C514.323 507.473 514.597 507.694 514.916 507.826C515.235 507.958 515.586 507.996 515.926 507.935C516.266 507.873 516.581 507.716 516.833 507.481L537.455 490.208C538.766 489.11 537.356 486.604 535.725 487.256C527.138 490.673 518.395 493.676 509.496 496.267C500.912 498.752 491.838 501.541 482.913 502.426C480.807 502.716 478.663 502.508 476.653 501.816C474.643 501.125 472.824 499.971 471.344 498.448C468.856 496.013 466.757 493.209 464.014 491.029C458.598 486.718 451.771 484.955 444.952 484.601C437.678 484.226 430.398 485.309 423.245 486.555C414.526 488.041 405.807 489.549 397.102 491.156C380.024 494.299 363.004 497.839 346.267 502.483C327.446 507.721 309.015 514.439 291.625 523.38C290.364 524.024 290.52 526.403 292.051 526.615C346.012 534.14 401.837 524.385 450.261 499.488C464.108 492.364 477.279 484 489.612 474.499C490.817 473.565 490.689 471.016 488.712 471.2C466.332 473.253 450.488 490.809 430.341 498.653C418.163 503.396 404.949 504.21 392.019 504.444C389.112 504.493 386.192 504.592 383.285 504.521C381.513 504.581 379.748 504.27 378.103 503.608C376.685 502.9 375.672 501.754 374.509 500.777C370.39 497.237 365.371 498.957 360.728 496.869C351.172 492.572 348.089 479.568 346.309 470.309C346.005 468.694 343.857 468.73 343.077 469.884C333.861 483.461 318.457 492.65 302.046 493.882C285.111 495.156 268.232 488.105 256.961 475.476C256.011 474.407 254.423 475.087 253.997 476.255C251.8 482.35 255.047 488.792 260.03 492.438C266.446 497.131 275.044 496.685 282.566 496.246L282.098 492.77L165.343 509.052L132.146 513.632L133.514 516.867C147.493 506.858 157.652 491.383 173.921 484.629C181.57 481.451 190.452 480.587 197.782 485.026C204.233 488.926 208.983 496.303 206.998 503.969L209.181 502.738C171.298 488.856 130.296 495.446 91.2429 488.856C80.1902 487.112 69.4194 483.905 59.2151 479.32L60.0303 481.323C60.8952 476.368 69.2459 479.823 71.9681 481.182C77.7842 484.199 84.0401 486.282 90.5056 487.355C103.25 489.391 116.312 487.388 127.857 481.628L126.071 478.577L93.2774 503.077L95.879 504.132C92.1928 492.806 87.0108 479.476 74.4847 475.639C74.222 475.572 73.9475 475.564 73.6817 475.618C73.4159 475.672 73.1658 475.785 72.9502 475.949C72.7346 476.114 72.5591 476.325 72.4368 476.566C72.3146 476.808 72.2489 477.074 72.2446 477.345C71.5357 485.96 66.6727 493.825 59.7468 498.894C53.7283 503.297 43.1304 507.537 35.9847 503.353C34.2338 502.327 32.4403 500.614 33.5816 498.483C34.5386 496.713 36.6936 495.701 37.8349 493.995C40.309 490.243 39.6851 484.983 39.756 480.722L40.3799 445.419L41.0888 405.224L37.7853 406.116C49.7798 430.538 42.6483 461.24 21.899 478.527C15.4694 483.879 8.53643 488.544 3.50329 495.347L6.74291 496.713C11.2094 474.224 19.3651 452.625 30.8807 432.79C36.0344 423.948 43.024 415.354 43.6408 404.721C44.1157 396.226 40.2806 388.362 35.0419 381.891C28.3641 373.658 19.4817 367.351 10.5851 361.737L11.216 364.158C15.4694 358.155 24.1462 365.206 27.3646 368.738C31.5116 373.283 35.8359 378.203 42.4215 378.472C42.8095 378.471 43.1865 378.343 43.4949 378.108C43.8033 377.872 44.0263 377.543 44.1299 377.17C46.8589 363.15 44.7367 348.62 38.1114 335.962C37.4521 334.702 35.0986 334.865 34.8718 336.387C31.3671 359.601 32.3295 383.269 37.7073 406.123L39.8836 403.943C33.6078 402.737 27.624 400.334 22.2606 396.863C19.9283 395.334 17.6528 393.72 15.2851 392.234C13.8673 391.328 12.3715 390.457 10.8758 389.636C9.23823 388.73 6.74293 388.093 5.91352 386.386C4.80056 384.057 5.45983 382.479 6.90597 380.525C8.18906 378.784 9.49341 377.056 10.7056 375.258C13.0662 371.768 15.2142 368.13 17.2203 364.42C20.9208 357.561 24.1037 350.439 27.7049 343.53C32.1142 335.035 37.282 327.107 43.8251 320.105C44.012 319.911 44.1528 319.678 44.2373 319.422C44.3217 319.166 44.3475 318.895 44.3128 318.628C44.278 318.361 44.1837 318.105 44.0368 317.879C43.8898 317.653 43.6939 317.463 43.4635 317.323C36.4526 312.488 29.5125 307.526 22.4165 302.825C17.7378 299.725 10.3654 297.353 6.72165 303.328C2.94325 309.494 10.8403 313.465 15.2284 315.681C22.2325 319.195 29.6791 321.75 37.3671 323.277C37.8206 323.388 38.2994 323.321 38.7053 323.091C39.1113 322.86 39.4136 322.484 39.5504 322.038C48.1989 295.704 40.628 265.576 22.0904 245.259C16.7753 239.446 10.5507 234.533 3.65923 230.711C1.66724 229.607 -0.126248 232.665 1.87283 233.769L1.87992 233.805Z" fill="#000AFF"/>
    <path d="M236.871 344.542C219.587 339.302 203.53 330.653 189.652 319.107L188.397 322.13C213.045 322.76 232.738 303.017 241.862 281.716C246.774 270.241 250.092 255.523 240.912 245.244C233.185 236.559 221.063 238.017 214.101 246.71C203.468 259.926 209.068 277.079 205.595 292.327L208.196 291.272C198.64 284.025 192.003 273.597 189.489 261.88L188.248 264.061C209.823 257.014 232.995 256.458 254.884 262.461C265.877 265.417 276.383 269.947 286.075 275.911C290.922 278.899 295.529 282.257 299.856 285.956C303.67 289.241 307.016 293.035 311.064 296.072C316.834 300.376 327.666 305.183 331.806 296.192C334.025 291.379 332.054 285.312 331.884 280.264C331.657 273.511 332.43 266.616 335.102 260.365C337.456 254.657 341.594 249.86 346.898 246.689C351.421 244.048 358.397 241.988 363.536 244.133C368.314 246.129 366.932 253.477 363.486 256.04C358.524 259.735 351.279 258.702 345.53 258.199C313.02 255.368 280.51 252.519 248.001 249.655L249.532 252.316C262.59 230.025 291.392 223.618 315.338 227.858C345.431 233.182 370.986 251.219 398.711 262.864C414.243 269.398 430.654 274.056 447.625 273.568C448.009 273.557 448.379 273.423 448.681 273.186C448.983 272.949 449.2 272.62 449.3 272.25C449.4 271.88 449.379 271.487 449.238 271.13C449.097 270.773 448.844 270.471 448.518 270.269C426.985 257.683 402.575 250.833 377.629 250.377L378.104 253.86C425.254 244.846 473.781 245.891 520.499 256.925C533.671 260.051 546.645 263.956 559.353 268.62L559.821 265.144C551.203 265.769 542.572 264.119 534.795 260.359C527.018 256.599 520.369 250.861 515.515 243.722C515.27 243.326 514.881 243.04 514.429 242.923C513.978 242.805 513.499 242.866 513.091 243.092C502.656 248.862 497.105 259.53 490.187 268.733C483.537 277.596 468.92 288.703 458.074 279.833V282.332C475.932 268.308 496.03 257.39 517.522 250.037C527.904 246.485 538.558 243.784 549.379 241.96C560.941 240.02 573.354 238.64 584.689 242.455C595.897 246.229 605.502 256.613 604.12 269.044C603.928 270.743 606.105 271.168 607.147 270.297L620.197 259.757H617.688C623.402 267.041 630.002 274.998 639.231 277.787C649.815 280.979 659.328 274.807 668.473 270.34C690.549 259.57 714.675 253.635 739.235 252.932L738.334 249.633C720.42 259.924 700.642 266.567 680.141 269.179C667.332 270.736 646.164 269.802 642.889 253.93L641.649 256.104C654.878 253.375 668.275 251.533 681.751 250.589C688.329 250.117 694.919 249.881 701.522 249.881C706.697 249.881 712.375 249.428 717.372 251.042C719.953 251.871 722.413 253.407 722.902 256.281C723.476 259.615 721.243 262.531 719.109 264.868C715.508 268.811 711.496 272.23 708.178 276.442C701.909 284.402 697.242 293.498 694.433 303.229C691.26 314.254 690.565 325.842 692.398 337.166L695.815 336.224L687.266 307.384C686.614 305.204 683.268 306.117 683.849 308.326C689.073 328.289 708.894 338.306 719.258 355.048C722.094 359.628 724.383 364.767 724.844 370.19C725.319 375.853 723.504 380.872 721.002 385.841C717.238 393.317 713.693 400.707 716.458 409.146C720.853 422.596 740.497 435.083 733.436 450.77C730.182 458.019 722.179 462.054 715.005 464.376C711.003 465.663 706.891 466.573 702.72 467.095C697.495 467.76 691.271 468.638 689.534 462.295C688.017 456.766 688.549 450.169 688.946 444.512C689.386 438.382 690.407 432.307 691.994 426.369C695.118 414.71 700.34 403.717 707.405 393.926H704.343C730.473 440.463 706.25 495.092 700.451 543.499C698.629 558.683 698.53 574.002 701.557 589.038L704.974 588.097C700.847 569.492 702.677 550.064 710.206 532.554C711.623 529.319 713.481 523.883 717.365 522.962C722.285 521.801 726.347 529.334 728.162 532.788C732.16 540.504 733.074 549.339 734.45 557.784C734.811 560.007 735.159 562.223 735.655 564.417C736.151 566.612 737.073 568.962 736.754 571.178C736.13 576.034 730.26 577.287 726.496 579.028C720.032 581.997 714.057 585.928 708.774 590.688C698.672 599.89 692.051 612.795 692.696 626.663C693.44 642.648 704.747 656.629 720.867 659.227L720.442 655.992C705.684 666.014 688.447 671.785 670.621 672.67C669.203 672.741 668.154 674.61 669.366 675.693L733.408 732.721L734.187 729.762C712.921 733.075 690.945 735.808 669.487 732.594C659.463 731.086 649.574 728.191 640.762 723.108C636.267 720.532 632.118 717.397 628.414 713.778C625.103 710.564 621.559 706.182 616.688 705.474C611.017 704.703 608.749 709.722 606.651 714.019L595.805 735.964C594.982 737.641 597.222 739.772 598.59 738.087C612.621 720.641 628.819 705.05 646.795 691.691H645.009L672.308 709.566C675.392 711.583 681.424 714.748 678.582 719.222C676.547 722.429 671.784 723.859 668.232 724.375C663.936 725.005 659.279 724.375 654.976 724.021C649.631 723.54 644.342 722.79 639.033 721.855C629.314 720.149 619.701 717.877 610.103 715.576C591.551 711.13 572.801 706.409 553.64 705.835C544.832 705.514 536.02 706.304 527.411 708.186C517.763 710.366 508.774 714.458 499.572 717.969C489.988 721.614 479.865 724.63 469.53 722.974C460.775 721.558 452.084 717.105 448.518 708.568C448.406 708.2 448.181 707.876 447.874 707.644C447.567 707.411 447.195 707.281 446.81 707.272C439.146 707.414 435.155 715.399 436.084 722.315C437.332 731.568 446.944 736.084 455.018 738.172C479.695 744.543 506.768 745.159 531.955 742.42C546.571 740.848 561.014 737.953 575.105 733.769C575.47 733.655 575.789 733.428 576.015 733.121C576.242 732.813 576.364 732.441 576.364 732.06C576.364 731.678 576.242 731.306 576.015 730.999C575.789 730.691 575.47 730.464 575.105 730.35C521.363 715.824 464.786 715.314 410.791 728.87C403.851 730.619 397.031 732.75 390.176 734.803C383.215 736.891 377.416 736.99 371.39 732.764C365.578 728.701 357.595 719.271 349.72 724.078C345.303 726.775 344.672 732.785 339.994 735.171C335.315 737.556 329.424 735.78 325.149 733.316C315.048 727.483 311.808 715.364 305.067 706.529C301.628 702.027 297.014 697.666 291.229 696.618C285.444 695.571 281.304 698.94 278.469 703.697C269.835 717.919 261.895 732.608 253.658 747.049L256.089 746.412C244.475 737.938 236.144 725.721 232.504 711.824C232.15 710.486 229.881 709.948 229.265 711.399C224.054 723.71 211.316 730.697 198.4 732.028C182.279 733.691 166.981 727.405 152.272 721.742C142.128 717.841 128.637 713.643 118.536 719.923C113.708 722.924 111.099 727.71 109.072 732.877C106.619 739.071 104.578 746.434 97.7297 749.095C91.3497 751.587 82.9564 749.393 79.6742 743.078C76.3921 736.764 78.4762 728.212 84.36 724.205L82.2333 723.929C116.551 752.578 164.373 763.048 207.53 751.205C207.896 751.093 208.216 750.867 208.444 750.56C208.672 750.253 208.794 749.881 208.794 749.499C208.794 749.117 208.672 748.745 208.444 748.438C208.216 748.13 207.896 747.904 207.53 747.793C167.953 736.937 127.428 729.878 86.5079 726.711C71.2597 725.529 52.8852 723.667 40.6426 734.888C35.5811 739.524 32.0508 746.533 25.8764 749.867C22.4666 751.707 17.9722 751.7 15.796 748.055C14.0025 745.046 13.726 741.188 12.7264 737.875C7.16872 719.377 -0.650358 698.232 10.6919 680.216L8.2675 680.853C23.5158 691.472 33.6955 706.699 42.4928 722.754C42.653 723.016 42.8779 723.233 43.146 723.383C43.4142 723.534 43.7165 723.613 44.024 723.613C44.3315 723.613 44.6339 723.534 44.9021 723.383C45.1702 723.233 45.3951 723.016 45.5552 722.754C54.2037 708.773 61.4911 692.675 51.836 677.3C47.9867 671.169 41.6351 665.265 40.593 657.811C39.7707 651.971 42.2022 643.186 49.4612 643.568C51.7439 643.695 51.7368 640.156 49.4612 640.028C43.6412 639.724 39.5864 643.943 37.8637 649.182C35.6875 655.808 37.4455 662.186 41.0254 667.927C45.9877 675.841 52.9561 682.552 53.1758 692.484C53.3956 702.827 47.7599 712.461 42.4928 720.97H45.5552C36.446 704.335 25.8339 688.789 10.061 677.788C9.65364 677.557 9.17189 677.494 8.71882 677.613C8.26575 677.732 7.87731 678.024 7.63659 678.425C-2.0327 693.758 1.21402 712.504 6.11955 728.892C7.3034 732.842 8.79209 736.679 9.83416 740.707C10.7345 744.133 11.2519 747.906 13.3786 750.837C17.1428 755.99 24.3381 755.282 29.0806 752.005C35.014 747.913 38.4947 741.266 43.9673 736.65C51.12 730.612 60.9807 729.394 69.9837 729.387C91.1299 729.387 112.723 732.46 133.585 735.659C158.179 739.44 182.532 744.64 206.523 751.233V747.821C164.656 759.31 118.011 749.279 84.6719 721.459C84.394 721.191 84.0372 721.02 83.6542 720.97C83.2713 720.92 82.8825 720.995 82.5452 721.183C72.9469 727.78 71.4794 743.276 81.4323 750.348C83.9246 752.047 86.7849 753.131 89.7782 753.511C92.7715 753.891 95.8124 753.557 98.6513 752.536C104.528 750.412 107.867 745.4 110.15 739.836C113.127 732.637 115.19 724.496 123.328 721.537C130.339 718.995 138.363 720.829 145.218 723.03C161.991 728.354 177.643 736.643 195.791 735.773C210.678 735.065 226.273 727.483 232.299 713.205L229.059 712.78C232.977 727.551 241.884 740.517 254.274 749.485C254.681 749.718 255.164 749.781 255.617 749.662C256.071 749.543 256.459 749.25 256.699 748.848L278.277 711.166C281.716 705.163 285.147 697.39 293.448 701.071C299.062 703.556 302.834 709.035 305.882 714.132C310.979 722.627 315.041 732.006 324.235 736.891C331.459 740.728 341.1 741.535 346.395 734.208C349.457 729.961 351.563 724.297 357.773 727.278C361.877 729.253 365.202 732.658 368.853 735.312C373.106 738.385 377.544 740.402 382.889 739.999C389.219 739.531 395.344 736.884 401.398 735.135C427.73 727.545 454.932 723.372 482.332 722.719C513.328 721.968 544.269 725.707 574.19 733.819V730.4C546.856 738.523 518.284 741.68 489.832 739.723C482.743 739.251 475.685 738.434 468.658 737.273C462.582 736.282 456.245 735.341 450.496 733.026C445.533 731.008 440.181 727.313 439.586 721.508C439.118 716.843 441.514 710.932 446.866 710.833L445.158 709.531C451.587 724.927 470.217 729.012 485.231 726.053C496.226 723.88 506.328 718.832 516.806 715.066C527.255 711.309 538.273 709.372 549.379 709.339C571.426 709.226 592.948 715.165 614.229 720.206C625.061 722.768 635.942 725.161 646.979 726.669C655.678 727.844 665.779 729.713 674.222 726.464C681.021 723.844 686.507 716.553 679.744 710.465C675.328 706.479 669.621 703.563 664.652 700.314L646.845 688.654C646.576 688.491 646.267 688.405 645.952 688.405C645.637 688.405 645.328 688.491 645.058 688.654C626.823 702.165 610.386 717.942 596.145 735.603L598.924 737.726L607.856 719.625C609.21 716.864 610.394 713.813 612.109 711.229C614.647 707.315 618.539 709.346 621.325 711.69C624.975 714.727 628.017 718.351 631.809 721.26C635.586 724.157 639.662 726.644 643.967 728.679C661.611 737.026 681.793 738.172 700.997 737.061C712.453 736.396 723.845 734.866 735.18 733.097C736.491 732.898 736.888 730.973 735.96 730.138L671.89 673.194L670.635 676.217C689.089 675.334 706.943 669.398 722.243 659.057C723.37 658.299 723.455 656.091 721.824 655.822C703.769 652.877 693.71 635.498 696.779 618.14C699.615 602.085 712.29 590.015 726.39 582.993C732.933 579.736 741.276 577.811 740.192 568.757C739.681 564.559 738.469 560.41 737.803 556.227C737.051 551.576 736.385 546.89 735.322 542.302C733.549 534.883 730.218 526.311 723.979 521.455C717.599 516.499 711.779 521.292 708.752 527.309C699.246 546.203 697.056 568.474 701.578 589.017C702.067 591.247 705.442 590.291 704.995 588.075C694.213 534.522 724.483 483.001 718.826 429.328C717.45 416.267 713.863 403.603 707.427 392.113C707.265 391.853 707.04 391.638 706.772 391.489C706.504 391.34 706.202 391.261 705.895 391.261C705.589 391.261 705.287 391.34 705.019 391.489C704.751 391.638 704.526 391.853 704.364 392.113C691.007 410.692 684.291 433.216 685.295 456.065C685.508 460.476 685.77 465.728 689.378 468.808C692.845 471.788 697.85 471.165 702.053 470.677C710.503 469.693 719.194 467.548 726.496 463.031C732.947 459.039 737.909 452.958 738.391 445.164C738.909 436.733 733.826 429.512 729.034 423.063C723.774 415.984 717.209 408.013 719.386 398.577C720.626 393.175 723.88 388.489 726.042 383.449C728.097 378.845 728.864 373.771 728.261 368.767C724.908 342.277 693.788 332.175 687.294 307.363L683.877 308.305L692.427 337.145C693.086 339.374 696.198 338.405 695.843 336.203C694.031 324.455 695.055 312.444 698.831 301.172C702.606 289.899 709.024 279.69 717.55 271.395C721.094 267.975 725.525 264.188 726.439 259.056C726.778 257.163 726.534 255.213 725.741 253.462C724.947 251.71 723.641 250.24 721.994 249.244C718.273 246.894 713.615 246.505 709.319 246.413C702.025 246.229 694.716 246.349 687.422 246.717C671.73 247.52 656.122 249.518 640.734 252.692C640.286 252.825 639.907 253.127 639.677 253.534C639.447 253.94 639.384 254.42 639.501 254.872C642.832 271.019 662.937 274.276 676.718 273.086C699.033 271.168 720.74 263.7 740.156 252.692C740.483 252.489 740.735 252.187 740.876 251.83C741.017 251.473 741.039 251.081 740.939 250.71C740.838 250.34 740.621 250.012 740.319 249.775C740.017 249.537 739.647 249.403 739.263 249.393C717.192 250.015 695.436 254.78 675.13 263.438C670.118 265.561 665.276 268.011 660.427 270.467C655.323 273.058 649.794 275.642 643.917 275.111C633.56 274.184 626.195 264.825 620.226 257.251C619.595 256.444 618.39 256.713 617.716 257.251L604.666 267.791L607.693 269.044C608.798 259.134 603.354 249.931 595.528 244.105C585.674 236.813 572.766 235.858 560.941 236.891C536.513 239.015 512.297 246.625 490.449 257.604C478.115 263.831 466.438 271.278 455.593 279.833C455.262 280.164 455.076 280.614 455.076 281.082C455.076 281.551 455.262 282 455.593 282.332C465.581 290.48 479.036 285.057 487.493 277.242C497.729 267.742 502.245 253.173 514.934 246.144L512.51 245.514C517.677 253.185 524.774 259.363 533.088 263.43C541.402 267.497 550.641 269.309 559.878 268.683C560.3 268.673 560.705 268.512 561.02 268.231C561.335 267.95 561.539 267.565 561.597 267.147C561.654 266.729 561.56 266.304 561.332 265.949C561.104 265.593 560.757 265.331 560.353 265.207C514.613 248.481 465.84 241.64 417.256 245.138C403.818 246.125 390.449 247.896 377.218 250.44C375.204 250.83 375.743 253.881 377.685 253.916C402.003 254.365 425.796 261.049 446.781 273.327L447.674 270.028C387.525 271.763 338.81 206.317 277.129 226.846C264.482 231.051 253.296 238.951 246.498 250.554C246.347 250.824 246.269 251.128 246.271 251.437C246.274 251.746 246.356 252.049 246.51 252.317C246.664 252.585 246.885 252.808 247.151 252.966C247.417 253.123 247.72 253.209 248.029 253.216L341.979 261.441C351.01 262.234 366.995 264.514 369.81 252.501C370.625 249.039 370.001 244.777 367.265 242.285C364.259 239.553 358.758 239.631 355.029 240.162C343.474 241.797 334.656 250.858 330.927 261.519C328.927 267.567 328.069 273.932 328.396 280.293C328.566 285.206 332.033 296.95 324.455 297.821C319.039 298.444 313.112 293.573 309.497 290.119C305.399 286.074 301.062 282.277 296.51 278.75C287.154 271.759 276.813 266.191 265.822 262.227C240.749 253.095 212.755 252.246 187.383 260.677C186.937 260.81 186.558 261.111 186.327 261.515C186.096 261.92 186.03 262.398 186.143 262.85C188.922 275.446 196.139 286.625 206.481 294.352C206.716 294.487 206.979 294.567 207.249 294.586C207.52 294.604 207.791 294.561 208.043 294.459C208.294 294.358 208.519 294.2 208.7 293.999C208.882 293.797 209.015 293.557 209.09 293.297C211.812 281.362 208.494 268.435 212.634 256.826C216.179 246.915 227.23 237.465 237.062 246.306C247.037 255.275 243.187 270.262 238.48 280.93C234.344 290.489 228.207 299.052 220.481 306.046C211.606 313.947 200.512 318.923 188.496 318.619C187.078 318.576 186.044 320.636 187.249 321.634C201.543 333.582 218.094 342.542 235.921 347.983C238.112 348.641 239.047 345.229 236.864 344.571L236.871 344.542Z" fill="#000AFF"/>
</svg>
